<svg width="18" height="18" viewBox="0 0 18 18" fill="none" xmlns="http://www.w3.org/2000/svg">
<rect width="18" height="18" fill="white"/>
<path d="M12.7874 15.21C12.0524 15.9225 11.2499 15.81 10.4774 15.4725C9.65988 15.1275 8.90988 15.1125 8.04738 15.4725C6.96738 15.9375 6.39738 15.8025 5.75238 15.21C2.09238 11.4375 2.63238 5.6925 6.78738 5.4825C7.79988 5.535 8.50488 6.0375 9.09738 6.0825C9.98238 5.9025 10.8299 5.385 11.7749 5.4525C12.9074 5.5425 13.7624 5.9925 14.3249 6.8025C11.9849 8.205 12.5399 11.2875 14.6849 12.15C14.2574 13.275 13.7024 14.3925 12.7799 15.2175L12.7874 15.21ZM9.02238 5.4375C8.90988 3.765 10.2674 2.385 11.8274 2.25C12.0449 4.185 10.0724 5.625 9.02238 5.4375Z" fill="black"/>
</svg>
