<svg width="70" height="70" viewBox="0 0 70 70" fill="none" xmlns="http://www.w3.org/2000/svg">
<path d="M15.9571 9.975C15.8334 12.0448 16.1371 14.1179 16.8491 16.0653C17.5611 18.0127 18.6663 19.7927 20.0958 21.2946C17.3173 22.0912 14.8297 23.6771 12.9348 25.8599C11.0399 28.0426 9.81922 30.7284 9.42082 33.5913C8.46012 40.4616 9.86954 47.4541 13.4167 53.4158L14.4375 55.1367C14.4762 55.2 14.518 55.2613 14.5629 55.3204L18.6929 60.8796C19.5677 62.0578 20.6887 63.0312 21.978 63.732C23.2673 64.4328 24.6939 64.8442 26.1584 64.9375C27.6228 65.0307 29.0901 64.8037 30.4578 64.2721C31.8256 63.7406 33.0611 62.9173 34.0783 61.8596C34.1973 61.7359 34.3399 61.6375 34.4978 61.5703C34.6557 61.5031 34.8255 61.4684 34.9971 61.4684C35.1687 61.4684 35.3385 61.5031 35.4963 61.5703C35.6542 61.6375 35.7969 61.7359 35.9158 61.8596C36.933 62.9173 38.1685 63.7406 39.5363 64.2721C40.9041 64.8037 42.3713 65.0307 43.8358 64.9375C45.3003 64.8442 46.7268 64.4328 48.0161 63.732C49.3054 63.0312 50.4265 62.0578 51.3012 60.8796L55.4312 55.3175C55.4752 55.2584 55.5161 55.197 55.5537 55.1338L56.5775 53.4129C60.1263 47.4539 61.5388 40.4636 60.5821 33.5942C60.2997 31.57 59.6048 29.6254 58.5405 27.8807C57.4762 26.136 56.0651 24.6283 54.3945 23.451C52.724 22.2737 50.8295 21.4518 48.8285 21.0362C46.8275 20.6206 44.7624 20.6202 42.7612 21.035L37.2167 22.1842H37.2079C37.2954 19.9092 37.6512 17.4592 38.3483 15.365C39.1942 12.8333 40.3667 11.3108 41.6733 10.7683C42.209 10.5448 42.6339 10.1176 42.8546 9.58072C43.0754 9.04386 43.0738 8.44131 42.8502 7.90563C42.6266 7.36995 42.1994 6.94501 41.6626 6.7243C41.1257 6.5036 40.5232 6.5052 39.9875 6.72875C36.9192 8.00917 35.175 11.0454 34.1979 13.9796L34.0637 14.3938C33.3455 13.0059 32.4178 11.7368 31.3133 10.6313C29.8007 9.1169 27.9836 7.94117 25.9824 7.18191C23.9811 6.42265 21.8415 6.09719 19.705 6.22709C18.73 6.28321 17.8095 6.69523 17.1181 7.385C16.4267 8.07476 16.0126 8.9943 15.9542 9.96917L15.9571 9.975ZM24.4912 32.7687C23.4792 32.97 22.5517 33.6817 21.9712 35.0379C21.3792 36.4204 21.1692 38.4708 21.8079 41.0288C21.9392 41.5882 21.8451 42.1768 21.546 42.6674C21.2468 43.1581 20.7666 43.5113 20.2092 43.6507C19.6517 43.7902 19.0618 43.7047 18.5668 43.4127C18.0719 43.1208 17.7117 42.6458 17.5642 42.0904C16.7475 38.8179 16.9021 35.7612 17.9492 33.3142C19.0079 30.8438 20.9971 29.0033 23.6337 28.4783C23.9195 28.4109 24.2159 28.4016 24.5053 28.4512C24.7947 28.5007 25.0711 28.608 25.3182 28.7666C25.5653 28.9252 25.7779 29.132 25.9433 29.3745C26.1088 29.6171 26.2237 29.8904 26.2813 30.1783C26.3389 30.4662 26.3379 30.7628 26.2785 31.0503C26.219 31.3378 26.1023 31.6104 25.9353 31.8519C25.7682 32.0933 25.5543 32.2987 25.3062 32.4557C25.0581 32.6127 24.781 32.7211 24.4912 32.7687Z" fill="#1B1561"/>
</svg>
