<svg width="26" height="30" viewBox="0 0 26 30" fill="none" xmlns="http://www.w3.org/2000/svg">
<path d="M21.0591 28.7964C19.426 30.3795 17.6429 30.1295 15.9265 29.3796C14.11 28.6131 12.4436 28.5797 10.5271 29.3796C8.12744 30.4128 6.86093 30.1129 5.42778 28.7964C-2.70453 20.4141 -1.50468 7.64903 7.72749 7.18243C9.97721 7.29908 11.5437 8.4156 12.8602 8.51559C14.8266 8.11564 16.7097 6.96579 18.8094 7.11577C21.3258 7.31574 23.2255 8.31562 24.4754 10.1154C19.276 13.2317 20.5092 20.0808 25.2753 21.9972C24.3254 24.4969 23.0922 26.9799 21.0425 28.813L21.0591 28.7964ZM12.6935 7.08244C12.4436 3.36624 15.4599 0.299962 18.9261 0C19.4094 4.29946 15.0266 7.49905 12.6935 7.08244Z" fill="#1B1561"/>
</svg>
