<svg width="59" height="53" viewBox="0 0 59 53" fill="none" xmlns="http://www.w3.org/2000/svg">
<g clip-path="url(#clip0_251_153)">
<path d="M27.3754 0.224002C24.9004 0.846068 23.2254 3.33433 23.6254 5.82259C24.2004 9.15687 26.5254 11.67 28.7754 11.3714C30.1004 11.1972 31.3504 10.2019 32.2504 8.63433C33.8004 5.94701 33.7754 3.63292 32.2004 1.84137C30.9254 0.398181 29.1004 -0.223885 27.3754 0.224002Z" fill="#1B1561"/>
<path d="M7.95016 5.37486C7.65016 5.99692 7.72516 6.09645 9.10016 7.3157L10.5502 8.6096L9.52516 9.9035C8.77516 10.849 8.32516 11.1974 7.85016 11.1974C6.90016 11.1974 6.00016 12.2425 6.00016 13.3622C6.00016 13.8847 5.85016 14.4819 5.67516 14.7058C5.50016 14.9049 5.12516 15.4026 4.82516 15.7758L4.27516 16.4725L3.05016 15.4523C1.62516 14.2331 0.65016 14.1087 0.20016 15.0542C-0.14984 15.8504 -0.0748402 15.95 3.50016 18.7866C7.37516 21.8472 7.60016 21.9965 8.20016 21.673C9.35016 21.0509 9.10016 20.18 7.40016 18.8861C6.77516 18.4134 6.25016 17.9655 6.25016 17.8659C6.25016 17.7664 6.57516 17.3185 6.97516 16.8706L7.70016 16.0744L10.3002 18.5378C13.1002 21.1753 15.4502 22.7429 17.0252 23.0166C18.2002 23.2157 20.3002 22.6434 21.6002 21.7725C22.1252 21.4242 22.6002 21.1504 22.6252 21.2002C22.6752 21.25 22.9252 23.788 23.2252 26.8486L23.7252 32.3974L23.0002 33.8406C20.2002 39.3396 17.2752 49.7157 17.9752 51.557C18.3002 52.4279 19.5502 53.0749 20.5252 52.8758C21.5252 52.6519 22.1752 51.7312 22.3752 50.1885C22.9002 46.3317 24.9002 40.111 27.1252 35.5077L28.0752 33.5918H29.5252H31.0002L31.9002 35.5077C34.2002 40.4842 35.5252 44.4904 36.5002 49.442C37.0002 51.98 37.3752 52.5772 38.6252 52.9007C39.4002 53.0997 40.7252 52.3781 41.0252 51.557C41.7502 49.7406 38.7752 39.3148 35.9752 33.8157C35.5752 32.9946 35.2752 32.2481 35.3502 32.1237C35.4252 32.0242 35.6502 29.934 35.8502 27.4706C36.0752 25.0321 36.3002 22.5439 36.3752 21.9965L36.5252 20.9514L37.9002 21.7725C41.6502 24.0119 43.7252 23.3899 48.8002 18.4631C51.2252 16.0993 51.2502 16.0993 51.7752 16.572C52.7752 17.4678 52.8502 17.8908 52.0752 18.488C50.9752 19.334 50.0002 20.3293 50.0002 20.6279C50.0002 21.1504 50.9752 21.8969 51.4252 21.7227C52.1252 21.4739 58.5002 16.3979 58.7752 15.8753C59.1252 15.2035 58.6252 14.4321 57.8502 14.4321C57.4752 14.4321 56.6752 14.8551 55.9502 15.4274L54.7002 16.4227L53.8502 15.3528C53.2502 14.6063 53.0002 14.0589 53.0002 13.4119C53.0002 12.2176 52.2002 11.1974 51.2502 11.1974C50.7002 11.1974 50.3252 10.9237 49.5002 9.9035L48.4752 8.6096L49.9002 7.3157C51.2752 6.09645 51.3502 5.99692 51.0502 5.37486C50.5252 4.20537 49.7752 4.50396 46.0002 7.51476C43.0002 9.87861 42.5002 10.3763 42.5002 10.9734C42.5002 11.4213 42.6752 11.7697 43.0252 11.9439C43.5502 12.2425 43.6752 12.1927 45.9752 10.5256C46.5752 10.1026 46.5752 10.1026 47.5252 11.1974C48.0752 11.8195 48.5002 12.3918 48.5002 12.4664C48.5002 12.7401 43.6502 17.2688 42.5502 18.0152L41.5252 18.7119L40.4502 18.0899C39.8502 17.7415 38.6502 16.8955 37.7502 16.1739C36.8502 15.4523 35.9002 14.7556 35.6252 14.6063C35.3002 14.4073 33.3002 14.3077 29.5002 14.3077C23.1252 14.3077 23.5502 14.1833 20.9502 16.5969C19.2002 18.2143 17.9752 18.8115 17.1752 18.3885C16.3002 17.9157 13.5002 15.6016 11.9002 13.9594L10.4252 12.4664L11.3502 11.3467C11.8752 10.6997 12.3752 10.2021 12.4502 10.2021C12.5502 10.2021 13.2252 10.65 13.9752 11.1974C15.4502 12.3171 15.5002 12.3171 16.0502 11.8692C16.4502 11.5955 16.6002 11.1725 16.5252 10.5504C16.5252 10.3763 14.9252 9.00772 13.0002 7.48988C9.22516 4.50396 8.47516 4.20537 7.95016 5.37486Z" fill="#1B1561"/>
</g>
<defs>
<clipPath id="clip0_251_153">
<rect width="59" height="53" fill="white"/>
</clipPath>
</defs>
</svg>
