<svg width="16" height="16" viewBox="0 0 16 16" fill="none" xmlns="http://www.w3.org/2000/svg">
<g opacity="0.5">
<path d="M5.91679 1.93333L11.5335 7.53333C11.6001 7.6 11.6475 7.67222 11.6755 7.75C11.7035 7.82778 11.7172 7.91111 11.7168 8C11.7168 8.08889 11.703 8.17222 11.6755 8.25C11.6479 8.32778 11.6006 8.4 11.5335 8.46667L5.91679 14.0833C5.76123 14.2389 5.56679 14.3167 5.33345 14.3167C5.10012 14.3167 4.90012 14.2333 4.73345 14.0667C4.56679 13.9 4.48345 13.7056 4.48345 13.4833C4.48345 13.2611 4.56679 13.0667 4.73345 12.9L9.63345 8L4.73345 3.1C4.5779 2.94444 4.50012 2.75267 4.50012 2.52467C4.50012 2.29667 4.58345 2.09955 4.75012 1.93333C4.91679 1.76667 5.11123 1.68333 5.33345 1.68333C5.55567 1.68333 5.75012 1.76667 5.91679 1.93333Z" fill="black"/>
</g>
</svg>
