<svg width="63" height="63" viewBox="0 0 63 63" fill="none" xmlns="http://www.w3.org/2000/svg">
<path d="M31.2481 4.11591C31.1641 4.22791 31.0801 5.71191 31.0801 7.41991C31.0801 9.71591 30.9681 10.7799 30.6321 11.4239L30.2121 12.3199H24.0521H17.9201L17.4441 11.3679C16.8281 10.0519 15.8761 9.71591 13.1041 9.82791C10.4721 9.93991 10.0241 10.2199 8.98806 12.2359C8.34406 13.5239 7.72807 14.0279 4.90006 15.5119C3.83606 16.0719 2.63206 16.7719 2.26806 17.0519C1.03606 17.9759 1.65206 19.8799 3.16406 19.8799C3.72406 19.8799 7.08406 18.2279 7.22406 17.8639C7.36406 17.5839 8.12006 17.5839 8.12006 17.8359C8.12006 17.9759 7.53206 18.6759 6.83206 19.4599C4.06006 22.4839 3.05206 23.7719 2.38006 25.2559C1.54006 27.1319 1.03606 30.7439 1.20406 33.7959C1.31606 35.7839 1.40006 36.0079 2.18406 36.7079C2.77206 37.2399 3.64006 37.6039 4.78806 37.8559C6.35606 38.1639 6.72006 38.3879 8.51206 40.0959C10.5281 41.9999 12.8521 43.4559 14.4481 43.7919C15.2601 43.9599 15.3721 44.1279 15.5401 45.2479C15.7641 46.7879 17.0521 49.2799 18.4801 50.9879C20.2161 53.0599 20.7481 54.1519 21.1121 56.4479C21.4761 58.7999 21.9801 59.4999 22.8201 58.7999C23.2121 58.4919 23.2681 58.0159 23.1841 56.4199C23.0441 53.9279 22.1761 51.9959 20.0761 49.5879C18.6481 47.9639 17.6401 45.9759 17.6401 44.7999C17.6401 44.4639 18.1161 44.2679 19.5161 44.0439C21.5601 43.6799 22.2601 43.2039 22.0081 42.3639C21.8401 41.8319 21.5881 41.8039 18.1161 41.8319C13.6641 41.8599 13.1601 41.6639 9.77206 38.4999C8.14806 36.9599 7.25206 36.3439 6.35606 36.1199C5.71206 35.9519 4.81606 35.7279 4.34006 35.6159L3.50006 35.3919L3.41606 32.8999C3.30406 30.1559 3.75206 26.9359 4.39606 25.6199C4.73206 24.9759 7.53206 21.5319 8.40006 20.7199C8.48406 20.6359 9.07206 19.9919 9.68806 19.2639L10.8361 17.9199L10.4441 16.4639C10.0521 15.0359 10.0521 14.9239 10.7521 13.3559L11.4801 11.7319L13.5241 11.8159L15.5401 11.8999L15.4561 12.7399C15.4281 13.1879 15.5401 14.1119 15.7081 14.7839L16.0441 15.9599L14.5041 17.5839C13.2441 18.8999 12.7681 19.6839 11.7881 22.2319C10.9481 24.3599 10.5281 25.9559 10.3601 27.5519C10.2201 28.7839 10.0241 30.4639 9.94006 31.2759C9.74406 32.7039 9.74406 32.7319 10.5001 32.9279C11.0881 33.0679 11.3681 32.9839 11.6761 32.5919C11.9841 32.1719 12.3481 32.0879 13.5521 32.1439C14.3361 32.1999 15.9601 32.0599 17.1081 31.8079C19.1801 31.3879 19.4601 31.3879 21.7561 31.9759C23.1001 32.3119 23.8001 31.9759 23.8001 31.0519C23.8001 30.5199 25.0321 29.7639 26.9081 29.1479C28.1401 28.7559 28.9241 27.9719 28.6721 27.3559C28.4761 26.8519 27.5801 26.4879 27.1601 26.7399C26.9921 26.8519 26.8801 26.5159 26.8801 25.9279C26.8801 25.1719 26.7121 24.8079 26.1521 24.4439C25.4801 24.0239 25.4241 23.8839 25.6201 22.5679C25.7041 21.7839 26.0961 20.4119 26.4321 19.5439C27.1321 17.8359 27.1041 17.6399 26.2081 17.6399C24.6681 17.6399 23.7441 19.5439 23.3521 23.5759C23.1561 25.4239 23.1841 25.4519 23.9121 25.7879C24.3601 26.0119 24.6121 26.2919 24.5001 26.5439C24.4161 26.7399 24.3601 27.1599 24.3601 27.4399C24.3601 28.1679 21.1401 29.3999 19.2361 29.3999C18.4521 29.3999 16.9401 29.6239 15.9041 29.8759C14.0561 30.3519 14.0001 30.3519 13.2441 29.7919C12.5721 29.2879 12.4881 29.0359 12.5441 27.9719C12.7401 25.0319 14.9801 20.0479 17.0521 18.0599C17.8361 17.3039 18.4801 16.4639 18.4801 16.1839C18.4801 15.7079 19.1241 15.6799 31.5561 15.7359C44.3801 15.8199 44.6041 15.8199 44.6881 16.3799C44.7161 16.6879 45.4441 17.5559 46.2841 18.3399C47.1241 19.0959 47.9361 20.0199 48.1041 20.3559C49.0561 22.1479 50.3441 25.8439 50.5121 27.2719C50.7081 28.7279 50.6521 28.9519 50.0921 29.5679C49.3641 30.3519 48.8041 30.3799 46.9281 29.8199C46.1721 29.5959 44.8561 29.3999 43.9881 29.3999C42.3641 29.3999 38.6961 28.1959 38.4441 27.5519C38.3881 27.3839 38.5841 26.4599 38.8921 25.5359C39.7881 22.8759 39.5921 18.5359 38.5841 17.8639C38.3881 17.7519 37.8281 17.6399 37.3241 17.6399H36.4281L36.8481 18.6199C37.3801 19.9079 37.3521 23.6319 36.7921 25.2839C36.4001 26.4319 36.2321 26.5999 35.5601 26.5999C34.5801 26.5999 34.0201 27.2159 34.3841 27.9159C34.5521 28.1679 35.7281 28.8399 37.0161 29.3999C38.9201 30.2399 39.3401 30.5199 39.2561 30.9959C39.1161 32.0039 39.8721 32.3119 41.3841 31.8919C43.0641 31.4159 45.1641 31.4719 47.0121 32.0319C48.2161 32.3959 48.6361 32.3959 49.8401 32.0879C50.5961 31.8919 51.2401 31.8079 51.2401 31.9199C51.2401 32.0319 51.4921 32.1999 51.8001 32.2839C52.5561 32.4799 53.2841 31.7239 53.0881 30.9679C53.0041 30.6319 52.8641 29.3719 52.7521 28.1399C52.3881 24.0519 50.6241 19.7119 48.3841 17.4439C46.9561 15.9879 46.9281 15.9319 47.2641 15.0359C47.4601 14.5319 47.6001 13.5799 47.6001 12.9359V11.7599H49.5601H51.5481L52.2201 13.2159C53.0321 14.9519 53.0601 15.2319 52.5001 16.7999L52.0801 17.9759L53.9841 19.9919C56.3641 22.4559 58.0441 24.5279 58.5761 25.6199C59.2761 26.9919 59.6401 29.2599 59.6401 32.3399C59.6401 34.9439 59.5841 35.2799 59.1081 35.5599C58.8001 35.6999 58.3241 35.8399 58.0441 35.8399C56.5321 35.8399 55.2721 36.5399 53.0881 38.6119C49.8121 41.6919 49.3641 41.8599 44.9681 41.8599C41.7761 41.8599 41.3281 41.9159 41.0481 42.3639C40.5721 43.1479 41.6641 43.8759 43.6801 44.0999C45.2761 44.2959 45.3601 44.3239 45.3601 45.0239C45.3321 46.1999 44.4641 47.8519 42.7281 49.9519C41.8601 51.0159 40.9641 52.2199 40.7681 52.6119C39.6761 54.8239 39.4521 58.3239 40.3761 58.9119C41.1881 59.4159 41.7481 58.5479 42.0001 56.3639C42.2521 54.0679 42.6161 53.2839 44.4641 51.1839C46.0321 49.4199 46.8441 47.8799 47.4041 45.6679C47.7961 44.1559 47.7961 44.1559 49.4761 43.5399C51.5761 42.7839 52.6121 42.0839 54.7961 39.8719C56.3361 38.3319 56.7281 38.1079 57.9601 37.9399C59.5281 37.7159 61.0121 36.8479 61.5161 35.8399C61.9921 34.8879 61.9641 30.0159 61.4601 27.6359C60.9561 25.1999 59.8921 23.4919 56.9521 20.2719C55.6641 18.8719 54.6841 17.6399 54.7961 17.5559C54.8801 17.4439 56.0001 17.9479 57.2601 18.6199C58.5201 19.3199 59.8361 19.8799 60.1721 19.8799C61.0121 19.8799 61.8801 18.9279 61.7401 18.1719C61.5721 17.3599 61.2361 17.0519 59.5001 16.0999C54.8521 13.5799 54.7121 13.4679 54.0681 12.1799C53.0601 10.1639 52.3881 9.79991 49.6721 9.79991C46.9281 9.79991 46.1441 10.0799 45.5561 11.3679L45.0801 12.3199H39.0601C34.1321 12.3199 33.0401 12.2359 33.0401 11.9279C33.0401 11.7319 32.8441 11.3959 32.6201 11.1999C32.2841 10.9199 32.2001 10.1359 32.2001 7.55991C32.2001 4.98391 32.1161 4.22791 31.8081 4.11591C31.5841 4.03191 31.3321 4.03191 31.2481 4.11591Z" fill="#1B1561"/>
<path d="M31.8924 35.4758C31.7804 36.7358 31.8924 49.6438 32.0324 49.7838C32.5644 50.3158 32.7604 48.5518 32.7604 42.6438C32.7604 39.0878 32.6764 35.9798 32.5924 35.7278C32.4244 35.2798 31.9484 35.1118 31.8924 35.4758Z" fill="#1B1561"/>
</svg>
