<svg width="7" height="12" viewBox="0 0 7 12" fill="none" xmlns="http://www.w3.org/2000/svg">
<path d="M5.61291 11.7625L0.177429 6.44327C0.112913 6.37995 0.0671067 6.31135 0.04001 6.23747C0.0129133 6.16359 -0.000420026 6.08443 1.00806e-05 6C1.00806e-05 5.91557 0.0135584 5.83641 0.0406552 5.76253C0.0677519 5.68865 0.113343 5.62005 0.177429 5.55673L5.61291 0.221636C5.76344 0.0738786 5.95161 0 6.17742 0C6.40323 0 6.59678 0.0791557 6.75807 0.237467C6.91935 0.395778 7 0.580475 7 0.791557C7 1.00264 6.91935 1.18734 6.75807 1.34565L2.01614 6L6.75807 10.6544C6.9086 10.8021 6.98387 10.9843 6.98387 11.2008C6.98387 11.4174 6.90323 11.6046 6.74194 11.7625C6.58065 11.9208 6.39247 12 6.17742 12C5.96237 12 5.7742 11.9208 5.61291 11.7625Z" fill="black" fill-opacity="0.5"/>
</svg>
