<svg width="48" height="48" viewBox="0 0 48 48" fill="none" xmlns="http://www.w3.org/2000/svg">
<path d="M14.0771 12.2698C14.0771 12.2698 13.4661 11.9488 13.0691 10.1298C12.6721 8.31079 16.1551 4.94979 16.1551 4.94979C16.1551 4.94979 17.2251 4.43079 21.6551 4.50779C26.0851 4.58479 27.1411 5.30179 28.0581 6.40179C32.0551 11.1998 39.5631 20.7498 41.3451 28.2798C41.7511 29.4018 42.3111 28.7898 42.3111 30.6008C42.3111 31.8988 41.6011 32.2568 41.4111 32.4688C36.7971 37.6328 25.4911 39.3438 20.4481 39.3438C15.4051 39.3438 15.4371 38.1828 14.0311 38.1828C12.6251 38.1828 11.0671 42.8278 7.59106 43.4998C5.00106 38.3048 5.10806 27.7928 7.59106 22.2398C13.4351 22.2398 14.3671 24.4848 16.7811 24.4848C18.8441 24.4848 18.5231 23.2018 21.7781 23.2018C25.0331 23.2018 29.5241 26.9138 29.5241 26.9138C26.9801 23.7518 29.8161 16.0458 24.3221 10.9168C23.2901 9.95479 22.8091 13.1168 19.6001 13.1168C19.1271 13.3968 17.4251 13.6198 17.4251 13.6198" stroke="white" stroke-linecap="round" stroke-linejoin="round"/>
<path d="M30.8839 28.2242C31.7779 29.2442 33.6149 30.6272 35.3229 30.6042M12.4729 29.5352C10.5019 31.9032 10.2419 34.4702 8.25586 35.5402M15.5129 30.6052C18.4779 33.6152 23.8409 33.4152 26.9729 30.2072M27.1059 8.74024C26.9689 9.31324 26.2359 10.1952 25.6959 10.3442M18.7299 6.44824C18.3289 6.92924 16.3799 9.40524 16.4259 9.80624C16.4719 10.2072 16.1859 12.2122 16.7929 12.4302C17.3999 12.6482 19.4629 12.2802 19.4399 11.4102C19.4169 10.5402 19.2449 10.0922 19.2909 9.66824C19.3369 9.24424 20.7119 7.14824 20.7119 7.14824" stroke="white" stroke-linecap="round" stroke-linejoin="round"/>
<path d="M16.7468 6.08105C16.2428 6.68905 14.5808 9.03805 14.6038 10.0231C14.6268 11.0081 14.7298 11.7311 14.9588 11.9491C15.1878 12.1671 16.4268 11.6541 16.4268 11.6541" stroke="white" stroke-linecap="round" stroke-linejoin="round"/>
<path d="M16.8698 12.4519C16.8698 12.4519 17.3658 12.9919 17.4228 13.5759C17.4798 14.1599 16.6668 14.7219 15.9228 14.9279C15.1788 15.1339 14.1338 13.7359 14.1338 13.2089C14.1338 12.6819 14.9588 11.9489 14.9588 11.9489M21.5778 9.66992C21.6038 10.4109 21.7848 11.2139 21.1458 11.4469C20.5068 11.6799 19.4008 11.6229 19.4008 11.6229" stroke="white" stroke-linecap="round" stroke-linejoin="round"/>
</svg>
