<svg width="58" height="58" viewBox="0 0 58 58" fill="none" xmlns="http://www.w3.org/2000/svg">
<g clip-path="url(#clip0_115_1222)">
<path d="M29 12.6875C32.5036 12.6875 35.3438 9.84731 35.3438 6.34375C35.3438 2.84019 32.5036 0 29 0C25.4964 0 22.6562 2.84019 22.6562 6.34375C22.6562 9.84731 25.4964 12.6875 29 12.6875Z" fill="#1B1561"/>
<path d="M49.5039 14.5H8.49609C7.6849 14.5 6.90694 14.8222 6.33334 15.3958C5.75974 15.9694 5.4375 16.7474 5.4375 17.5586C5.4375 18.3698 5.75974 19.1477 6.33334 19.7213C6.90694 20.2949 7.6849 20.6172 8.49609 20.6172H20.0372C20.82 20.6172 21.7364 20.9672 22.2552 22.3164C22.8613 23.8831 22.5645 26.9088 22.1907 29.2526L21.7013 32.0223C21.7022 32.0295 21.7014 32.0369 21.6991 32.0437C21.6967 32.0506 21.6928 32.0568 21.6877 32.062L17.7682 54.3569C17.626 55.1662 17.8102 55.9988 18.2805 56.6726C18.7507 57.3465 19.4687 57.8066 20.2773 57.9524C20.6771 58.0231 21.087 58.0137 21.4831 57.9247C21.8793 57.8357 22.2538 57.6689 22.5849 57.434C22.916 57.1991 23.1972 56.9007 23.4121 56.5563C23.627 56.2118 23.7713 55.8281 23.8366 55.4274L26.5452 39.9305C26.5452 39.9305 27.4141 36.25 29 36.25C30.612 36.25 31.4627 39.9305 31.4627 39.9305L34.1713 55.441C34.2368 55.8452 34.3821 56.2323 34.5988 56.5798C34.8154 56.9273 35.0991 57.2282 35.4332 57.465C35.7674 57.7018 36.1453 57.8697 36.5449 57.9589C36.9446 58.0481 37.358 58.0569 37.7611 57.9847C38.1642 57.9126 38.5489 57.7609 38.8928 57.5385C39.2367 57.3162 39.5329 57.0276 39.7641 56.6896C39.9954 56.3516 40.157 55.971 40.2396 55.5699C40.3223 55.1688 40.3242 54.7553 40.2454 54.3535L36.3248 32.0586C36.3256 32.0515 36.3249 32.0443 36.3228 32.0374C36.3206 32.0306 36.317 32.0243 36.3123 32.0189L35.8218 29.2492C35.448 26.9054 35.1512 23.8797 35.7572 22.313C36.2738 20.9672 37.2197 20.6138 37.9413 20.6138H49.5039C50.3151 20.6138 51.0931 20.2915 51.6667 19.7179C52.2403 19.1443 52.5625 18.3664 52.5625 17.5552C52.5625 16.744 52.2403 15.966 51.6667 15.3924C51.0931 14.8188 50.3151 14.4966 49.5039 14.4966V14.5Z" fill="#1B1561"/>
</g>
<defs>
<clipPath id="clip0_115_1222">
<rect width="58" height="58" fill="white"/>
</clipPath>
</defs>
</svg>
