<svg width="64" height="64" viewBox="0 0 64 64" fill="none" xmlns="http://www.w3.org/2000/svg">
<path d="M55.7177 57.2501L53.9457 56.6241C53.9512 56.4967 53.9412 56.3691 53.9157 56.2441C53.9157 56.2441 51.5137 54.8511 48.7007 55.4371C45.8877 56.0231 43.1347 57.6641 41.3177 57.0781C40.9187 56.9491 40.4167 56.6411 39.8197 56.2491C42.1907 55.5031 44.8887 55.1701 45.5947 53.9141C46.6497 52.0391 49.0227 51.9061 49.0227 51.9061C49.0227 51.7201 48.9947 51.5641 48.9517 51.4251L50.8377 51.0821C50.9377 51.0641 50.9917 50.8751 50.9547 50.6621C50.9197 50.4491 50.8097 50.2931 50.7087 50.3121L48.4227 50.7371C48.0737 50.5201 47.7047 50.4961 47.7047 50.4961C44.7617 50.3071 45.4777 53.6801 41.6107 53.6801C40.0867 53.6801 39.1427 54.3761 38.1237 55.1321C36.5967 54.1591 34.6607 53.1031 32.2917 52.6121C37.2257 51.1281 43.4997 50.0321 48.1317 47.3011C59.3957 40.6621 65.8977 30.6251 59.4457 19.2211C53.0027 7.82313 34.6257 -8.08487 27.3847 10.6041C24.3367 18.4711 21.6277 23.4671 19.5767 26.9981C20.9437 24.2271 22.7687 19.8871 23.7217 14.8891C12.8637 20.3631 13.1537 30.9901 13.8377 35.5161C13.6255 35.5904 13.4209 35.6848 13.2267 35.7981L4.16268 41.1381C1.15968 42.9081 1.30168 48.9091 4.47868 54.5281C6.99668 58.9781 10.6567 61.8521 13.5657 61.9831L13.5527 62.0001C13.6107 62.0001 13.6657 61.9941 13.7237 61.9931C13.8067 61.9941 13.8867 61.9881 13.9677 61.9841C18.0317 61.8201 20.9017 59.3361 23.3597 59.0431C26.5317 58.6661 34.1567 60.4841 36.8267 57.8161C36.9812 57.6634 37.1478 57.5233 37.3247 57.3971C38.9837 58.6201 40.6537 59.4511 42.9867 58.6641C46.5317 57.4671 49.8127 56.5591 53.5627 57.7171C53.5627 57.7171 53.6627 57.5861 53.7597 57.3781L55.4437 57.9811C55.5397 58.0161 55.6777 57.8791 55.7547 57.6781C55.8287 57.4751 55.8127 57.2851 55.7177 57.2501ZM38.7287 5.95013C41.7077 4.19413 51.3577 11.3291 55.7087 19.0241C60.0627 26.7211 53.1677 28.2191 48.8137 20.5221C44.4637 12.8291 33.8227 8.84513 38.7287 5.95013ZM14.1037 58.7251C12.0607 59.9321 8.52968 57.5941 6.21868 53.5041C3.90468 49.4111 3.68868 45.1201 5.73068 43.9131C7.77568 42.7121 11.3057 45.0521 13.6207 49.1401C15.9317 53.2271 16.1487 57.5211 14.1037 58.7251ZM19.1567 57.8161C19.5047 54.8531 18.6497 51.0821 16.5817 47.4201C14.5577 43.8401 11.7507 41.1171 9.00868 39.9141L13.9417 37.0081C14.302 36.8019 14.7117 36.6978 15.1267 36.7071C17.2407 36.7071 20.6917 39.0271 23.1977 43.4611C26.1887 48.7541 26.0337 53.7611 24.0227 54.9441L19.1567 57.8161ZM30.4767 56.7191C28.2667 56.2751 26.0817 56.2971 24.0887 56.5421L27.4587 54.5551C28.0603 54.2087 28.6851 53.9043 29.3287 53.6441C30.8987 53.7961 33.0697 54.2171 34.6567 55.3481C35.1417 55.6951 35.6037 56.0581 36.0547 56.4151C34.7907 56.9741 33.1137 57.2501 30.4767 56.7191Z" fill="#1B1561"/>
</svg>
