<svg width="22" height="20" viewBox="0 0 22 20" fill="none" xmlns="http://www.w3.org/2000/svg">
<path d="M10.2413 5.29112e-05C10.0512 0.000424043 9.8611 0.00484208 9.67117 0.013304C9.26304 0.0869362 9.07458 0.268268 8.97225 0.475819C8.8595 0.704657 8.8639 1.01258 8.98961 1.28638C9.11542 1.56033 9.34616 1.78428 9.6683 1.86792C9.99048 1.95156 10.434 1.90833 11.0169 1.53021L11.4829 2.27029C10.7504 2.74535 10.0417 2.87068 9.45414 2.7181C8.86663 2.56553 8.43067 2.14845 8.2054 1.65788C7.99314 1.19569 7.95415 0.653439 8.15771 0.171893C6.17046 0.497998 4.37107 1.27135 2.98892 2.35981C2.53468 2.86203 2.49022 3.44573 2.68933 3.84439C2.91298 4.29201 3.43993 4.61877 4.49382 4.28045L4.75572 5.11747C3.43233 5.54225 2.34154 5.08984 1.91818 4.24229C1.81492 4.03568 1.75185 3.81206 1.72708 3.58148C1.50417 3.84988 1.30293 4.12928 1.12512 4.41996L1.13096 4.42278C0.732089 5.34452 0.723013 5.98296 0.882023 6.39783C1.04113 6.81275 1.37447 7.07636 1.88776 7.22165C2.91423 7.51204 4.57643 7.16164 5.74691 6.27453C6.24792 5.89486 6.72287 4.97401 6.76422 4.25987C6.78482 3.90275 6.71028 3.62062 6.56303 3.44047C6.41578 3.26031 6.18 3.1255 5.6919 3.13062L5.68324 2.25258C6.35406 2.24553 6.89873 2.47596 7.22865 2.8796C7.55853 3.28324 7.65743 3.80304 7.62803 4.31127C7.56922 5.32779 7.04482 6.38688 6.26492 6.97791C4.88153 8.02643 3.05435 8.46306 1.65623 8.0675C1.00853 7.88424 0.435185 7.48549 0.139762 6.86786C-0.30226 9.00334 0.339936 10.9869 1.56214 12.3597C1.72189 12.5392 1.89192 12.7088 2.0701 12.8662C1.94258 12.4956 1.88414 12.1097 1.89785 11.7341C1.92239 11.061 2.17947 10.4022 2.69521 9.94712C3.11816 9.57374 3.70243 9.35834 4.40121 9.35975C4.44779 9.35975 4.49539 9.3606 4.54299 9.36257C4.65181 9.36727 4.76354 9.37686 4.87731 9.39199L4.76433 10.2628C4.04254 10.1666 3.57407 10.3343 3.2624 10.6093C2.95077 10.8844 2.77884 11.296 2.76171 11.7664C2.72744 12.7074 3.3206 13.8061 4.59953 14.1247L4.59805 14.1336C5.85716 14.3775 7.26222 14.1511 8.67284 13.2774L8.67571 13.276C8.96929 13.0669 9.12741 12.8621 9.20535 12.6857C9.29726 12.4774 9.29531 12.2961 9.22989 12.1012C9.09912 11.7117 8.63071 11.3113 8.20109 11.1997C7.50643 11.0192 7.06515 11.2671 6.85826 11.5624C6.65138 11.8575 6.63878 12.1474 6.9581 12.3993L6.42698 13.0924C5.77006 12.574 5.72816 11.6598 6.15356 11.0528C6.47269 10.5976 7.03265 10.2857 7.70772 10.2658C7.73617 10.2647 7.76464 10.2642 7.7931 10.2643C7.99249 10.2658 8.20012 10.2936 8.4153 10.3494C9.13325 10.5359 9.79702 11.0672 10.0489 11.8178C10.1161 12.019 10.1456 12.2312 10.1358 12.4434C10.9095 12.0422 11.7255 11.686 12.5567 11.4184C13.953 10.7709 14.5584 9.63572 14.5348 8.67986C14.511 7.71691 13.9242 6.90649 12.5726 6.77088L12.658 5.89716C14.3558 6.06754 15.365 7.2997 15.3987 8.65778C15.4182 9.44908 15.1322 10.2725 14.5565 10.9734C15.3007 10.8888 16.0403 10.9032 16.7573 11.0499C16.6114 10.7457 16.5406 10.4165 16.5505 10.0895C16.5818 9.05404 17.4497 8.08808 18.8136 8.07337C18.9068 8.07248 19 8.0759 19.0928 8.08362L19.0234 8.95879C17.8691 8.86491 17.4351 9.47972 17.4158 10.1174C17.3967 10.748 17.8114 11.4538 19.0003 11.5475C20.3107 11.5593 21.2502 10.8381 21.7105 9.76635C22.3268 8.33149 22.0345 6.18027 20.0971 4.21278C20.0604 4.17552 20.024 4.13793 19.9871 4.10118C19.9668 4.27641 19.9225 4.44791 19.8555 4.61073C19.5198 5.42788 18.7334 5.97944 17.9165 6.13352C16.7897 6.346 15.8657 5.88227 15.4392 5.17465C15.0128 4.46714 15.1247 3.46659 15.8921 2.93984L16.3769 3.66818C15.9642 3.95143 15.9472 4.33496 16.1772 4.71651C16.4072 5.09816 16.9259 5.42868 17.7588 5.27164C18.2823 5.17287 18.8652 4.73925 19.0567 4.27312C19.1525 4.04005 19.171 3.80971 19.0756 3.54619C18.998 3.33216 18.8354 3.08739 18.5329 2.82961L18.5242 2.82232C17.2594 1.85495 15.9155 1.15923 14.5536 0.700428L14.5565 0.704798C14.866 1.27901 14.889 1.93037 14.6984 2.50656C14.3171 3.65897 13.1208 4.56694 11.6408 4.51676C11.3191 4.50595 11.0129 4.66336 10.7524 4.97053C10.4918 5.2777 10.3016 5.72767 10.2575 6.20696C10.1693 7.16554 10.578 8.22214 12.1719 8.74438L11.9054 9.57994C10.003 8.95668 9.27388 7.43977 9.39473 6.12623C9.45525 5.46956 9.70525 4.85931 10.0966 4.39797C10.4879 3.93663 11.0447 3.6178 11.6695 3.63881C12.7827 3.67649 13.6293 2.97701 13.8777 2.22617C14.0018 1.85082 13.9858 1.4773 13.7966 1.12639C13.6129 0.78562 13.2488 0.44866 12.5971 0.202765C11.8191 0.0656588 11.0309 -0.00217009 10.2413 5.29112e-05ZM14.9281 11.8384C12.9873 11.9987 10.8827 12.938 9.12709 14.0264C6.53497 15.6333 3.80717 15.2825 1.87173 13.8252C2.63317 16.5903 5.33123 17.1515 8.14599 16.4522C8.42766 16.3448 8.70442 16.145 8.94044 15.8869C9.26721 15.5294 9.50396 15.066 9.57851 14.6828L10.4279 14.8531C10.3147 15.435 10.0076 16.0122 9.57564 16.4846C9.16122 16.9378 8.62131 17.2999 7.99694 17.395C7.68364 18.1031 7.42582 18.7896 7.32117 19.2701C7.15679 20.0248 7.97897 20.3145 8.34709 19.5535C9.2279 17.733 10.4711 16.1124 12.0239 14.7151C13.2308 13.9091 14.2653 12.9153 14.9281 11.8384Z" fill="#1B1561"/>
</svg>
