<svg width="63" height="63" viewBox="0 0 63 63" fill="none" xmlns="http://www.w3.org/2000/svg">
<path d="M16.6023 5.19272C15.6138 5.20626 13.2312 5.60161 10.5209 6.04089L11.4565 8.75124C16.8629 8.02858 16.8309 7.88327 17.2262 8.43476C21.1809 13.9521 24.5601 19.2811 26.4148 25.0489C30.4265 25.3455 35.2167 26.1736 38.5116 27.9838C42.7054 23.5123 49.5455 21.1163 55.184 19.1613C56.6799 18.6425 58.2905 20.0718 60.4098 20.4001L61.0064 18.2758C60.4069 17.4372 57.5848 16.2348 56.4121 16.2187C55.9156 16.2118 54.5053 16.6063 54.078 16.7529C47.0668 18.1066 41.359 18.3749 34.1199 20.7611C29.5391 16.0959 24.7431 11.4816 19.2396 6.758C18.1029 5.78224 18.0471 5.17304 16.6023 5.19272ZM26.9223 27.294C25.0908 30.5154 23.9283 31.2931 21.4199 32.9751C19.2158 32.3993 17.0168 31.8123 14.436 32.1155C11.8499 31.7704 10.7955 32.7277 7.6578 33.8259C6.70702 33.5059 5.57081 33.9485 4.84028 34.26C3.63971 34.8722 2.21421 35.7712 2.53118 37.2854C3.01709 38.8496 5.01956 38.3803 5.93404 37.9872C6.70247 37.6205 7.41737 36.9072 7.94672 36.3457C10.5775 36.4157 11.7457 36.33 14.4667 35.1261C16.5269 35.9629 19.1323 36.2957 21.4675 36.3531C21.6115 36.2459 21.7595 36.1443 21.9113 36.0485C23.2619 35.1994 24.8997 34.875 26.3795 35.4615C27.8591 36.0482 28.8089 37.3986 29.1817 38.9309C29.4018 39.8356 29.4377 40.8205 29.287 41.8273C29.8715 43.4673 30.3157 44.9738 31.3672 46.9845C30.7282 49.7875 30.9311 52.5564 31.0889 55.3938L28.2858 56.4458L27.7517 57.8078H36.3912L35.39 56.3432L33.3758 55.3272C33.807 52.4963 34.5605 49.6978 34.1444 46.7821C34.2121 44.6037 33.4936 42.4254 33.068 40.2469C35.6894 37.0183 34.3445 34.7417 36.1811 31.2292C36.4465 30.7225 36.743 30.2328 37.069 29.7627C33.702 28.3674 30.3648 27.4446 26.9223 27.294ZM24.689 37.3644C24.1901 37.3792 23.6502 37.5564 23.0903 37.9083C22.1948 38.4714 21.3206 39.4839 20.782 40.7954C20.2435 42.1068 20.1578 43.4323 20.405 44.4482C20.6522 45.4644 21.1789 46.1233 21.8861 46.4036C22.5932 46.6839 23.438 46.5688 24.3335 46.0059C25.2293 45.4428 26.1036 44.43 26.6422 43.1186C27.1807 41.8072 27.2662 40.482 27.019 39.4658C26.7718 38.4497 26.2451 37.7907 25.5381 37.5104C25.2729 37.4052 24.9883 37.3556 24.6891 37.3644H24.689Z" fill="#1B1561"/>
</svg>
