<svg width="58" height="54" viewBox="0 0 58 54" fill="none" xmlns="http://www.w3.org/2000/svg">
<path d="M25.23 28.6185L22.765 24.8665C22.5233 24.4741 22.185 24.1553 21.75 23.9101C21.315 23.6649 20.8558 23.5422 20.3725 23.5422H1.3775C0.845833 22.267 0.483333 21.0409 0.29 19.8638C0.0966664 18.6866 0 17.4605 0 16.1853C0 11.5749 1.5225 7.72479 4.5675 4.63488C7.6125 1.54496 11.4067 0 15.95 0C18.4633 0 20.8558 0.539509 23.1275 1.61853C25.3992 2.69755 27.3567 4.21798 29 6.17984C30.6433 4.21798 32.6008 2.69755 34.8725 1.61853C37.1442 0.539509 39.5367 0 42.05 0C46.5933 0 50.3875 1.54496 53.4325 4.63488C56.4775 7.72479 58 11.5749 58 16.1853C58 17.4605 57.9033 18.6866 57.71 19.8638C57.5167 21.0409 57.1542 22.267 56.6225 23.5422H39.3675L34.365 16.0381C34.075 15.5967 33.7009 15.2652 33.2427 15.0435C32.7845 14.8218 32.2886 14.7119 31.755 14.7139C31.1267 14.7139 30.5834 14.8983 30.1252 15.2671C29.667 15.636 29.3403 16.1137 29.145 16.7003L25.23 28.6185ZM29 54L24.795 50.1744C19.72 45.564 15.5633 41.6158 12.325 38.3297C9.08667 35.0436 6.54917 32.0763 4.7125 29.4278H18.6325L23.635 36.9319C23.925 37.3733 24.3001 37.7048 24.7602 37.9265C25.2203 38.1482 25.7153 38.2581 26.245 38.2561C26.8733 38.2561 27.4176 38.0717 27.8777 37.7029C28.3378 37.3341 28.6636 36.8563 28.855 36.2698L32.77 24.2779L35.3075 28.1035C35.5492 28.4959 35.8875 28.8147 36.3225 29.0599C36.7575 29.3052 37.2167 29.4278 37.7 29.4278H53.2875C51.4508 32.0763 48.9133 35.0436 45.675 38.3297C42.4367 41.6158 38.28 45.564 33.205 50.1744L29 54Z" fill="#1B1561"/>
</svg>
