<svg width="63" height="63" viewBox="0 0 63 63" fill="none" xmlns="http://www.w3.org/2000/svg">
<g clip-path="url(#clip0_251_157)">
<path d="M1.68 30.1003V56.2803H0.84C0.028 56.2803 0 56.3363 0 57.5403V58.8003H2.94H5.88V57.9883C5.88 56.7283 5.6 56.2803 4.872 56.2803H4.172L4.256 53.0043L4.34 49.7003H26.964C49.056 49.7003 49.616 49.7003 50.008 50.2323C50.288 50.6243 50.4 51.6043 50.4 53.5363V56.2803H49.56C48.748 56.2803 48.72 56.3363 48.72 57.5403V58.8003H51.66H54.6V57.5403C54.6 56.3363 54.572 56.2803 53.788 56.2803H52.976L52.864 52.9483L52.78 49.5883L51.8 48.5803C51.268 48.0483 50.4 47.4603 49.84 47.3203C49.252 47.1523 40.32 47.0403 26.544 47.0403H4.2V32.7603V18.4803H6.44C8.484 18.4803 8.708 18.4243 9.128 17.7803C9.744 16.8563 9.352 16.3243 8.568 17.0243C8.036 17.5003 7.448 17.5843 5.684 17.3883C5.432 17.3603 5.32 16.7163 5.32 15.1203C5.32 13.0763 5.264 12.8803 4.76 12.8803C4.228 12.8803 4.2 12.6843 4.2 8.40029V3.92029H2.94H1.68V30.1003Z" fill="#1B1561"/>
<path d="M25.1998 15.9323C22.9038 16.4363 20.6918 18.0603 19.4038 20.2163C16.5478 24.9483 18.3398 30.9403 23.3238 33.3203C25.5638 34.4123 27.2438 34.5803 29.4558 34.0203C32.3118 33.2923 34.3558 31.6963 35.7838 28.9803C36.4278 27.7483 36.5398 27.2443 36.5398 25.0603C36.5398 22.9603 36.4278 22.3163 35.8398 21.1403C34.9718 19.3763 33.0118 17.3883 31.3038 16.5763C29.8758 15.8763 26.8798 15.5683 25.1998 15.9323ZM29.2038 20.8323C30.4078 21.3083 31.5838 22.9043 31.8078 24.3043C32.3118 27.4123 29.2318 30.1843 26.1798 29.3723C24.6678 28.9523 23.0998 27.3003 22.8758 25.8443C22.2878 22.2883 25.8998 19.4323 29.2038 20.8323Z" fill="#1B1561"/>
<path d="M25.788 23.6883C25.004 24.6683 25.06 25.6203 25.9 26.4603C26.74 27.3003 27.692 27.3563 28.672 26.5723C29.204 26.1523 29.4 25.7323 29.4 25.0603C29.4 23.1003 26.964 22.1763 25.788 23.6883Z" fill="#1B1561"/>
<path d="M9.9401 30.6882C6.2161 32.6202 5.2921 37.0722 7.9521 40.2362L8.7361 41.1602H12.4601H16.1841L16.9681 40.2362C19.1521 37.6322 18.9561 34.0762 16.4921 31.7242C15.9601 31.2482 15.1761 30.6882 14.7561 30.5482C13.5801 30.1002 10.9201 30.1842 9.9401 30.6882Z" fill="#1B1561"/>
<path d="M33.4322 33.3481C33.3482 33.5161 32.5642 33.9641 31.7522 34.3281L30.2402 35.0001V37.9961C30.2402 40.7121 30.2962 41.0761 30.8002 41.3561C31.1362 41.5801 31.3882 41.6081 31.5002 41.4401C31.6122 41.2721 33.9922 41.1601 37.4922 41.1601C41.7482 41.1601 43.3722 41.0761 43.6242 40.8241C43.9882 40.4601 48.5802 40.4601 51.1562 40.8241L52.4162 41.0201L53.2282 44.1001C53.6762 45.7801 54.2362 48.0481 54.4602 49.1401C54.7122 50.2041 55.3002 52.5281 55.7762 54.2921C56.5602 57.0921 56.7842 57.5401 57.6242 58.1841C59.3602 59.5281 61.4602 58.9121 62.5242 56.7841L63.0282 55.7761L60.5082 45.9201C58.2402 36.9601 57.9602 35.9801 57.1762 35.2241L56.3362 34.3841L51.7722 34.1321C49.2522 34.0201 44.6042 33.7681 41.4402 33.6001C38.2762 33.4321 35.2242 33.2361 34.6642 33.1801C34.0762 33.0961 33.5442 33.1801 33.4322 33.3481Z" fill="#1B1561"/>
<path d="M20.4403 34.216C19.6843 35.476 19.7123 37.38 20.5243 38.92C21.1123 40.068 22.5123 41.412 22.7923 41.132C22.8763 41.076 22.6243 40.264 22.2323 39.34C21.3643 37.156 21.3643 36.12 22.2883 35.14C22.6803 34.72 22.9603 34.356 22.9043 34.3C22.8483 34.272 22.4003 34.02 21.9243 33.768L21.0003 33.292L20.4403 34.216Z" fill="#1B1561"/>
<path d="M22.9318 35.5882C22.4838 36.0362 22.3718 36.4282 22.4838 37.1842C22.6238 38.4162 25.2558 44.6322 25.9278 45.3882C26.5998 46.1442 28.0278 46.0882 28.7838 45.2762C29.3718 44.6602 29.3998 44.3522 29.3998 39.9562V35.2802H27.2998H25.1998V37.7162C25.1718 39.9562 25.1438 40.1242 24.7798 39.6482C24.4998 39.2842 24.3598 38.4162 24.3598 37.0442C24.3598 34.8042 24.0518 34.4682 22.9318 35.5882Z" fill="#1B1561"/>
<path d="M6.27176 43.0079C5.90776 43.5399 5.85176 43.9039 6.04776 44.4639C6.52376 45.8359 7.02776 45.9199 16.3238 45.9199C21.0558 45.9199 24.9198 45.8359 24.9198 45.7519C24.9198 45.6399 24.5838 44.8279 24.1918 43.9319L23.4358 42.2799H15.0918H6.71976L6.27176 43.0079Z" fill="#1B1561"/>
<path d="M30.2675 43.4841C30.2395 44.2401 30.0995 45.1081 29.9315 45.4161C29.6795 45.8641 29.7075 45.9481 29.9875 45.8641C30.5475 45.6681 30.9115 43.8481 30.5755 42.9241C30.2955 42.1961 30.2955 42.2521 30.2675 43.4841Z" fill="#1B1561"/>
<path d="M32.1165 42.4759C31.7525 42.8119 31.9205 45.2759 32.3125 45.6119C32.5925 45.8639 34.8885 45.9199 40.5725 45.8639C49.2525 45.7799 49.3645 45.7519 49.3645 43.9879C49.3645 42.2519 49.4765 42.2799 40.4605 42.2799C35.9805 42.2799 32.2005 42.3639 32.1165 42.4759Z" fill="#1B1561"/>
</g>
<defs>
<clipPath id="clip0_251_157">
<rect width="63" height="63" fill="white"/>
</clipPath>
</defs>
</svg>
