<svg width="57" height="57" viewBox="0 0 57 57" fill="none" xmlns="http://www.w3.org/2000/svg">
<path d="M15.675 17.1C17.9426 17.1 20.1173 16.1992 21.7208 14.5958C23.3242 12.9923 24.225 10.8176 24.225 8.55C24.225 6.2824 23.3242 4.10767 21.7208 2.50424C20.1173 0.900801 17.9426 0 15.675 0C13.4074 0 11.2327 0.900801 9.62924 2.50424C8.0258 4.10767 7.125 6.2824 7.125 8.55C7.125 10.8176 8.0258 12.9923 9.62924 14.5958C11.2327 16.1992 13.4074 17.1 15.675 17.1ZM0 24.9888C0 22.2015 2.25435 19.95 5.0388 19.95H18.6247C17.6227 21.6823 17.0967 23.6488 17.1 25.65C17.0981 27.2676 17.4413 28.867 18.1068 30.3414C18.7722 31.8158 19.7446 33.1313 20.9589 34.2H17.8638C16.2575 34.2001 14.6895 34.6901 13.3691 35.6047C12.0486 36.5193 11.0386 37.8149 10.4738 39.3186C6.20445 38.2755 3.5568 35.947 1.99785 33.3535C0 30.0276 0 26.6076 0 26.0119V24.9888ZM39.9 25.65C39.9035 23.6488 39.3774 21.6822 38.3752 19.95H51.9612C54.7485 19.95 57 22.2043 57 24.9888V26.0148C57 26.6047 57 30.0276 55.005 33.3535C53.4432 35.947 50.7956 38.2755 46.5262 39.3186C45.9618 37.8147 44.9518 36.5188 43.6313 35.6042C42.3108 34.6895 40.7426 34.1997 39.1362 34.2H36.0411C37.2554 33.1313 38.2278 31.8158 38.8932 30.3414C39.5587 28.867 39.9019 27.2676 39.9 25.65ZM49.875 8.55C49.875 10.8176 48.9742 12.9923 47.3708 14.5958C45.7673 16.1992 43.5926 17.1 41.325 17.1C39.0574 17.1 36.8827 16.1992 35.2792 14.5958C33.6758 12.9923 32.775 10.8176 32.775 8.55C32.775 6.2824 33.6758 4.10767 35.2792 2.50424C36.8827 0.900801 39.0574 0 41.325 0C43.5926 0 45.7673 0.900801 47.3708 2.50424C48.9742 4.10767 49.875 6.2824 49.875 8.55ZM12.825 42.0888C12.825 39.3015 15.0793 37.05 17.8638 37.05H39.1362C41.9207 37.05 44.175 39.3043 44.175 42.0888V43.1148C44.175 43.7048 44.175 47.1276 42.18 50.4535C40.0624 53.9704 35.947 57 28.5 57C21.0529 57 16.9347 53.9704 14.82 50.4535C12.825 47.1276 12.825 43.7076 12.825 43.1119V42.0888ZM28.5 34.2C29.6228 34.2 30.7346 33.9788 31.7719 33.5492C32.8093 33.1195 33.7518 32.4897 34.5458 31.6958C35.3397 30.9018 35.9695 29.9593 36.3992 28.9219C36.8288 27.8846 37.05 26.7728 37.05 25.65C37.05 24.5272 36.8288 23.4154 36.3992 22.3781C35.9695 21.3407 35.3397 20.3982 34.5458 19.6042C33.7518 18.8103 32.8093 18.1805 31.7719 17.7508C30.7346 17.3212 29.6228 17.1 28.5 17.1C26.2324 17.1 24.0577 18.0008 22.4542 19.6042C20.8508 21.2077 19.95 23.3824 19.95 25.65C19.95 27.9176 20.8508 30.0923 22.4542 31.6958C24.0577 33.2992 26.2324 34.2 28.5 34.2Z" fill="#1B1561"/>
</svg>
