<svg width="47" height="47" viewBox="0 0 47 47" fill="none" xmlns="http://www.w3.org/2000/svg">
<path d="M5.875 4C5.875 1.79086 7.66586 0 9.875 0H37.125C39.3341 0 41.125 1.79086 41.125 4V43C41.125 45.2091 39.3341 47 37.125 47H9.875C7.66586 47 5.875 45.2091 5.875 43V4ZM34.1875 44.0625C36.3966 44.0625 38.1875 42.2716 38.1875 40.0625V6.9375C38.1875 4.72836 36.3966 2.9375 34.1875 2.9375H12.8125C10.6034 2.9375 8.8125 4.72836 8.8125 6.9375V40.0625C8.8125 42.2716 10.6034 44.0625 12.8125 44.0625H34.1875ZM33.7812 8.8125C34.5924 8.8125 35.25 9.47008 35.25 10.2812C35.25 11.0924 34.5924 11.75 33.7812 11.75H19.0938C18.2826 11.75 17.625 11.0924 17.625 10.2812C17.625 9.47008 18.2826 8.8125 19.0938 8.8125H33.7812ZM30.8438 17.625C31.6549 17.625 32.3125 18.2826 32.3125 19.0938C32.3125 19.9049 31.6549 20.5625 30.8438 20.5625H19.0938C18.2826 20.5625 17.625 19.9049 17.625 19.0938C17.625 18.2826 18.2826 17.625 19.0938 17.625H30.8438ZM24.9688 26.4375C25.7799 26.4375 26.4375 27.0951 26.4375 27.9062C26.4375 28.7174 25.7799 29.375 24.9688 29.375H19.0938C18.2826 29.375 17.625 28.7174 17.625 27.9062C17.625 27.0951 18.2826 26.4375 19.0938 26.4375H24.9688ZM33.7812 35.25C34.5924 35.25 35.25 35.9076 35.25 36.7188C35.25 37.5299 34.5924 38.1875 33.7812 38.1875H19.0938C18.2826 38.1875 17.625 37.5299 17.625 36.7188C17.625 35.9076 18.2826 35.25 19.0938 35.25H33.7812ZM13.2188 8.8125C14.0299 8.8125 14.6875 9.47008 14.6875 10.2812C14.6875 11.0924 14.0299 11.75 13.2188 11.75C12.4076 11.75 11.75 11.0924 11.75 10.2812C11.75 9.47008 12.4076 8.8125 13.2188 8.8125ZM13.2188 17.625C14.0299 17.625 14.6875 18.2826 14.6875 19.0938C14.6875 19.9049 14.0299 20.5625 13.2188 20.5625C12.4076 20.5625 11.75 19.9049 11.75 19.0938C11.75 18.2826 12.4076 17.625 13.2188 17.625ZM13.2188 26.4375C14.0299 26.4375 14.6875 27.0951 14.6875 27.9062C14.6875 28.7174 14.0299 29.375 13.2188 29.375C12.4076 29.375 11.75 28.7174 11.75 27.9062C11.75 27.0951 12.4076 26.4375 13.2188 26.4375ZM13.2188 35.25C14.0299 35.25 14.6875 35.9076 14.6875 36.7188C14.6875 37.5299 14.0299 38.1875 13.2188 38.1875C12.4076 38.1875 11.75 37.5299 11.75 36.7188C11.75 35.9076 12.4076 35.25 13.2188 35.25Z" fill="white"/>
</svg>
