<svg width="57" height="57" viewBox="0 0 57 57" fill="none" xmlns="http://www.w3.org/2000/svg">
<g clip-path="url(#clip0_228_138)">
<path fill-rule="evenodd" clip-rule="evenodd" d="M14.25 4.75C12.9902 4.75 11.782 5.25044 10.8912 6.14124C10.0004 7.03204 9.5 8.24022 9.5 9.5V11.875C8.87011 11.875 8.26602 12.1252 7.82062 12.5706C7.37522 13.016 7.125 13.6201 7.125 14.25C7.125 14.8799 7.37522 15.484 7.82062 15.9294C8.26602 16.3748 8.87011 16.625 9.5 16.625V21.375C8.87011 21.375 8.26602 21.6252 7.82062 22.0706C7.37522 22.516 7.125 23.1201 7.125 23.75C7.125 24.3799 7.37522 24.984 7.82062 25.4294C8.26602 25.8748 8.87011 26.125 9.5 26.125V30.875C8.87011 30.875 8.26602 31.1252 7.82062 31.5706C7.37522 32.016 7.125 32.6201 7.125 33.25C7.125 33.8799 7.37522 34.484 7.82062 34.9294C8.26602 35.3748 8.87011 35.625 9.5 35.625V40.375C8.87011 40.375 8.26602 40.6252 7.82062 41.0706C7.37522 41.516 7.125 42.1201 7.125 42.75C7.125 43.3799 7.37522 43.984 7.82062 44.4294C8.26602 44.8748 8.87011 45.125 9.5 45.125V47.5C9.5 48.7598 10.0004 49.968 10.8912 50.8588C11.782 51.7496 12.9902 52.25 14.25 52.25H42.75C44.0098 52.25 45.218 51.7496 46.1088 50.8588C46.9996 49.968 47.5 48.7598 47.5 47.5V9.5C47.5 8.24022 46.9996 7.03204 46.1088 6.14124C45.218 5.25044 44.0098 4.75 42.75 4.75H14.25ZM20.1875 14.25C19.2427 14.25 18.3365 14.6253 17.6684 15.2934C17.0003 15.9615 16.625 16.8677 16.625 17.8125V20.1875C16.625 21.1323 17.0003 22.0385 17.6684 22.7066C18.3365 23.3747 19.2427 23.75 20.1875 23.75H36.8125C37.7573 23.75 38.6635 23.3747 39.3316 22.7066C39.9997 22.0385 40.375 21.1323 40.375 20.1875V17.8125C40.375 16.8677 39.9997 15.9615 39.3316 15.2934C38.6635 14.6253 37.7573 14.25 36.8125 14.25H20.1875Z" fill="#1B1561"/>
</g>
<defs>
<clipPath id="clip0_228_138">
<rect width="57" height="57" fill="white"/>
</clipPath>
</defs>
</svg>
