<svg width="20" height="18" viewBox="0 0 20 18" fill="none" xmlns="http://www.w3.org/2000/svg">
<path fill-rule="evenodd" clip-rule="evenodd" d="M13.8822 1.44041C16.6572 1.44041 18.7497 3.39722 18.7497 5.99214V10.9385C18.7497 12.2666 18.2063 13.4665 17.2188 14.3178C16.333 15.0805 15.1838 15.4845 13.8955 15.4845H5.68467C4.39884 15.4845 3.25051 15.0812 2.36384 14.3178C1.37634 13.4665 0.833008 12.2666 0.833008 10.9385V5.99214C0.833008 3.39722 2.92551 1.44041 5.70051 1.44041H13.8822ZM13.8822 2.52073H5.70051C3.60467 2.52073 2.08301 3.98059 2.08301 5.99214V10.9385C2.08301 11.9778 2.49634 12.9062 3.24634 13.5522C3.89301 14.1103 4.73717 14.4042 5.68717 14.4042H13.8822C13.8838 14.4028 13.8905 14.4042 13.8955 14.4042C14.8463 14.4042 15.6897 14.1103 16.3363 13.5522C17.0872 12.9062 17.4997 11.9778 17.4997 10.9385V5.99214C17.4997 3.98059 15.978 2.52073 13.8822 2.52073ZM15.1955 5.85444C15.413 6.08562 15.3722 6.42556 15.1047 6.61426L11.4013 9.21566C10.933 9.53687 10.373 9.69748 9.81384 9.69748C9.25634 9.69748 8.70051 9.53831 8.23551 9.21998L4.49801 6.6157C4.22884 6.42844 4.18717 6.08778 4.40301 5.85588C4.62051 5.62469 5.01384 5.58796 5.28217 5.77449L9.01634 8.37589C9.48551 8.6971 10.1463 8.6971 10.6188 8.37301L14.3155 5.77593C14.5838 5.58652 14.9772 5.62253 15.1955 5.85444Z" fill="#1B1561"/>
</svg>
