<svg width="12" height="17" viewBox="0 0 12 17" fill="none" xmlns="http://www.w3.org/2000/svg">
<path d="M4.78128 15.5774C3.62983 15.4961 2.91595 14.9526 2.73624 14.8099C2.59884 14.7023 2.46692 14.5892 2.35242 14.4881L2.14533 14.2964C1.14571 13.3119 0.826609 12.2785 1.07801 10.8419C1.18504 10.2347 1.42499 9.67544 1.67887 9.08299C1.74807 8.92183 1.81727 8.75928 1.88497 8.59489C1.95715 9.03589 2.00395 9.45795 2.02088 9.7641L2.09953 11.1808L2.93487 9.99222C3.93598 8.56765 4.79373 5.60537 4.92614 3.44011C4.95701 2.92293 4.8898 2.43529 4.66927 1.80867C4.44874 1.18204 3.79012 1.28686 3.79012 1.28686L3.91458 2.25705C4.10076 3.70979 3.57258 6.30911 2.81191 8.13728C2.69592 7.52496 2.59486 7.13107 2.47339 6.60326C2.27078 5.72358 1.61764 5.18931 1.61764 5.18931C1.61764 5.18931 1.63308 5.7379 1.47776 6.61804C1.32094 7.50418 1.0561 8.03707 0.753928 8.74266C0.492075 9.35451 0.220764 9.98714 0.0958116 10.6941C-0.20736 12.4235 0.201349 13.7298 1.43046 14.9401L1.65697 15.1498C1.79238 15.2703 1.94023 15.3959 2.09157 15.5146C2.39474 15.7547 3.30226 16.3998 4.70561 16.4986C4.71855 16.4995 4.7315 16.5 4.74394 16.5C5.00181 16.5 5.21986 16.3158 5.23977 16.0733C5.26068 15.8184 5.05508 15.5968 4.78128 15.5774Z" fill="#D2416E"/>
<path d="M11.4234 8.57735C10.9814 6.72286 9.86278 5.26089 9.53522 4.91317C8.91892 4.2122 8.40019 4.09214 8.40019 4.09214C8.40019 4.09214 8.69042 4.71276 8.73672 5.41604C8.78301 6.11932 8.66254 6.36222 8.40318 6.97684C8.19559 6.31419 7.12478 4.20712 6.37805 3.15381C5.67264 2.15915 4.67502 1.09569 3.64453 0.5C3.66793 0.72904 3.80483 1.35659 3.82823 1.5824C5.52828 3.18106 7.41252 6.8771 7.7371 8.31921L7.93871 9.21413L8.59583 8.53255C8.92539 8.19084 9.35302 7.38505 9.585 6.59634C9.90062 7.14908 10.2426 7.89946 10.4517 8.77683C10.7967 10.224 10.8335 12.3403 9.05034 14.2031C8.7397 14.5282 8.06616 15.5035 6.68122 15.5765C6.40643 15.5912 6.19685 15.8092 6.21228 16.0636C6.22721 16.3093 6.44675 16.4991 6.7091 16.4991C6.71856 16.4991 6.72852 16.4991 6.73798 16.4986C7.93125 16.4354 8.78003 15.878 9.79508 14.8159C11.8565 12.6622 11.8187 10.2347 11.4234 8.57735Z" fill="#D2416E"/>
</svg>
