<svg width="20" height="20" viewBox="0 0 20 20" fill="none" xmlns="http://www.w3.org/2000/svg">
<path d="M10.9875 2.65C10.9875 2.90959 10.9105 3.16335 10.7663 3.37919C10.6221 3.59503 10.4171 3.76325 10.1773 3.86259C9.93744 3.96193 9.67354 3.98793 9.41894 3.93728C9.16434 3.88664 8.93048 3.76164 8.74692 3.57808C8.56337 3.39452 8.43836 3.16066 8.38772 2.90606C8.33708 2.65146 8.36307 2.38756 8.46241 2.14773C8.56175 1.9079 8.72997 1.70292 8.94581 1.5587C9.16165 1.41448 9.41541 1.3375 9.675 1.3375C10.0231 1.3375 10.3569 1.47578 10.6031 1.72192C10.8492 1.96807 10.9875 2.3019 10.9875 2.65ZM9.675 5C9.40402 5 9.13914 5.08044 8.91392 5.23112C8.68869 5.3818 8.51326 5.59594 8.40985 5.84641C8.30644 6.09688 8.2797 6.37241 8.33303 6.63809C8.38635 6.90377 8.51733 7.14764 8.70938 7.33882C8.90143 7.52999 9.1459 7.65985 9.41182 7.71196C9.67774 7.76406 9.95315 7.73607 10.2031 7.63151C10.4531 7.52695 10.6665 7.35054 10.8161 7.12463C10.9658 6.89872 11.045 6.63348 11.0438 6.3625C11.0421 6.00057 10.8972 5.65403 10.6406 5.39869C10.3841 5.14335 10.0369 5 9.675 5ZM9.675 8.6625C9.3944 8.6625 9.1201 8.74571 8.88679 8.9016C8.65347 9.0575 8.47163 9.27908 8.36425 9.53832C8.25686 9.79756 8.22877 10.0828 8.28351 10.358C8.33825 10.6332 8.47338 10.886 8.67179 11.0845C8.87021 11.2829 9.12301 11.418 9.39822 11.4727C9.67343 11.5275 9.95869 11.4994 10.2179 11.392C10.4772 11.2846 10.6988 11.1028 10.8546 10.8695C11.0105 10.6362 11.0938 10.3619 11.0938 10.0813C11.0946 9.89471 11.0584 9.70985 10.9874 9.53734C10.9164 9.36484 10.812 9.20811 10.6801 9.0762C10.5481 8.94429 10.3914 8.83982 10.2189 8.76881C10.0464 8.69781 9.86154 8.66167 9.675 8.6625ZM9.675 12.4125C9.40579 12.4137 9.14298 12.4947 8.91975 12.6452C8.69651 12.7956 8.52285 13.0088 8.42068 13.2579C8.31851 13.507 8.29242 13.7807 8.3457 14.0446C8.39897 14.3085 8.52923 14.5507 8.72002 14.7406C8.91082 14.9305 9.1536 15.0597 9.41773 15.1118C9.68186 15.1638 9.95549 15.1365 10.2041 15.0332C10.4527 14.9299 10.6651 14.7552 10.8146 14.5313C10.964 14.3074 11.0437 14.0442 11.0438 13.775C11.0438 13.5955 11.0083 13.4179 10.9394 13.2521C10.8706 13.0864 10.7697 12.936 10.6425 12.8094C10.5153 12.6828 10.3644 12.5825 10.1983 12.5144C10.0323 12.4463 9.85445 12.4117 9.675 12.4125ZM9.675 16.1625C9.41541 16.1625 9.16165 16.2395 8.94581 16.3837C8.72997 16.5279 8.56175 16.7329 8.46241 16.9727C8.36307 17.2126 8.33708 17.4765 8.38772 17.7311C8.43836 17.9857 8.56337 18.2195 8.74692 18.4031C8.93048 18.5866 9.16434 18.7116 9.41894 18.7623C9.67354 18.8129 9.93744 18.7869 10.1773 18.6876C10.4171 18.5883 10.6221 18.42 10.7663 18.2042C10.9105 17.9883 10.9875 17.7346 10.9875 17.475C10.9875 17.1269 10.8492 16.7931 10.6031 16.5469C10.3569 16.3008 10.0231 16.1625 9.675 16.1625ZM13.2938 4.825C12.9879 4.82377 12.6886 4.91341 12.4337 5.08256C12.1789 5.25172 11.9801 5.49275 11.8625 5.77509C11.7449 6.05743 11.7138 6.36834 11.7731 6.66838C11.8325 6.96842 11.9796 7.24406 12.1959 7.46033C12.4122 7.67661 12.6878 7.82376 12.9879 7.88313C13.2879 7.9425 13.5988 7.9114 13.8812 7.79378C14.1635 7.67616 14.4045 7.47733 14.5737 7.22251C14.7428 6.96768 14.8325 6.66835 14.8313 6.3625C14.8296 5.95524 14.6671 5.56512 14.3791 5.27714C14.0911 4.98916 13.701 4.82665 13.2938 4.825ZM13.2938 8.4875C12.9785 8.4875 12.6704 8.58097 12.4083 8.7561C12.1462 8.93122 11.9419 9.18013 11.8213 9.47135C11.7007 9.76257 11.6691 10.083 11.7306 10.3922C11.7921 10.7013 11.9439 10.9853 12.1668 11.2082C12.3897 11.4311 12.6737 11.5829 12.9828 11.6444C13.292 11.7059 13.6124 11.6743 13.9037 11.5537C14.1949 11.4331 14.4438 11.2288 14.6189 10.9667C14.794 10.7046 14.8875 10.3965 14.8875 10.0813C14.8875 9.65856 14.7196 9.25319 14.4207 8.9543C14.1218 8.65541 13.7164 8.4875 13.2938 8.4875ZM13.2938 12.2375C12.9897 12.2375 12.6924 12.3277 12.4396 12.4966C12.1867 12.6656 11.9897 12.9057 11.8733 13.1866C11.7569 13.4676 11.7265 13.7767 11.7858 14.075C11.8451 14.3732 11.9916 14.6472 12.2066 14.8622C12.4216 15.0772 12.6956 15.2236 12.9938 15.283C13.292 15.3423 13.6012 15.3118 13.8821 15.1955C14.1631 15.0791 14.4032 14.882 14.5721 14.6292C14.7411 14.3764 14.8313 14.0791 14.8313 13.775C14.8296 13.3677 14.6671 12.9776 14.3791 12.6896C14.0911 12.4017 13.701 12.2391 13.2938 12.2375ZM17 8.3125C16.6494 8.30878 16.3056 8.40935 16.0123 8.60143C15.719 8.79351 15.4893 9.06844 15.3526 9.39129C15.2158 9.71414 15.1781 10.0704 15.2442 10.4147C15.3103 10.759 15.4773 11.0759 15.7239 11.3252C15.9705 11.5744 16.2856 11.7447 16.6292 11.8145C16.9728 11.8843 17.3294 11.8504 17.6537 11.7171C17.978 11.5838 18.2554 11.3571 18.4506 11.0658C18.6458 10.7746 18.75 10.4319 18.75 10.0813C18.7517 9.61488 18.5684 9.16687 18.2404 8.83534C17.9124 8.50381 17.4664 8.31581 17 8.3125ZM6.01875 5.1875C5.78212 5.18627 5.55046 5.25538 5.3532 5.38608C5.15593 5.51677 5.00196 5.70315 4.91083 5.92153C4.81971 6.13991 4.79554 6.38045 4.8414 6.6126C4.88726 6.84474 5.00108 7.05802 5.16841 7.22534C5.33573 7.39267 5.54901 7.50649 5.78116 7.55235C6.0133 7.59821 6.25384 7.57405 6.47222 7.48292C6.69061 7.39179 6.87698 7.23782 7.00767 7.04055C7.13837 6.84329 7.20749 6.61163 7.20625 6.375C7.20625 6.06006 7.08114 5.75801 6.85844 5.53531C6.63574 5.31261 6.33369 5.1875 6.01875 5.1875ZM6.01875 8.85C5.77152 8.85 5.52985 8.92331 5.32429 9.06066C5.11873 9.19802 4.95851 9.39324 4.8639 9.62165C4.76929 9.85005 4.74454 10.1014 4.79277 10.3439C4.841 10.5863 4.96005 10.8091 5.13487 10.9839C5.30968 11.1587 5.53241 11.2778 5.77489 11.326C6.01736 11.3742 6.2687 11.3495 6.4971 11.2549C6.72551 11.1602 6.92074 11 7.05809 10.7945C7.19544 10.5889 7.26875 10.3472 7.26875 10.1C7.26875 9.76848 7.13705 9.45054 6.90263 9.21612C6.66821 8.9817 6.35027 8.85 6.01875 8.85ZM6.01875 12.6C5.78389 12.6 5.55429 12.6696 5.35901 12.8001C5.16373 12.9306 5.01152 13.1161 4.92164 13.3331C4.83176 13.5501 4.80825 13.7888 4.85407 14.0192C4.89989 14.2495 5.01299 14.4611 5.17906 14.6272C5.34514 14.7933 5.55673 14.9064 5.78708 14.9522C6.01743 14.998 6.2562 14.9745 6.47319 14.8846C6.69017 14.7947 6.87564 14.6425 7.00612 14.4472C7.1366 14.252 7.20625 14.0224 7.20625 13.7875C7.20625 13.4726 7.08114 13.1705 6.85844 12.9478C6.63574 12.7251 6.33369 12.6 6.01875 12.6ZM2.35625 9.0125C2.14461 9.01126 1.93737 9.07289 1.76079 9.18957C1.58422 9.30625 1.44626 9.47273 1.36441 9.66791C1.28256 9.86309 1.2605 10.0782 1.30103 10.2859C1.34156 10.4936 1.44285 10.6846 1.59207 10.8347C1.74128 10.9848 1.9317 11.0872 2.13919 11.129C2.34667 11.1707 2.56188 11.1499 2.75754 11.0692C2.95319 10.9885 3.12048 10.8515 3.23819 10.6757C3.35591 10.4998 3.41875 10.2929 3.41875 10.0813C3.41957 9.9412 3.3927 9.80236 3.33967 9.67273C3.28665 9.5431 3.20851 9.42523 3.10977 9.32591C3.01103 9.22658 2.89362 9.14776 2.7643 9.09397C2.63498 9.04019 2.49631 9.0125 2.35625 9.0125Z" fill="#00A9B9"/>
</svg>
