<svg width="16" height="17" viewBox="0 0 16 17" fill="none" xmlns="http://www.w3.org/2000/svg">
<path fill-rule="evenodd" clip-rule="evenodd" d="M1.99967 1.8335H7.33301C8.20367 1.8335 8.94501 2.39016 9.21967 3.16683H12.6663C13.1765 3.1668 13.6674 3.36171 14.0385 3.71169C14.4097 4.06166 14.6331 4.54023 14.663 5.0495L14.6663 5.16683V10.5002C14.6664 11.0103 14.4715 11.5012 14.1215 11.8723C13.7715 12.2435 13.2929 12.4669 12.7837 12.4968L12.6663 12.5002H9.99967C9.58604 12.5001 9.18259 12.3719 8.84483 12.1331C8.50708 11.8944 8.25164 11.5568 8.11367 11.1668H2.66634V14.5002C2.66634 14.677 2.5961 14.8465 2.47108 14.9716C2.34605 15.0966 2.17649 15.1668 1.99967 15.1668C1.82286 15.1668 1.65329 15.0966 1.52827 14.9716C1.40325 14.8465 1.33301 14.677 1.33301 14.5002V2.50016C1.33301 2.32335 1.40325 2.15378 1.52827 2.02876C1.65329 1.90373 1.82286 1.8335 1.99967 1.8335ZM9.33301 4.50016V10.5002C9.33303 10.6635 9.39298 10.8211 9.50148 10.9431C9.60999 11.0651 9.75951 11.1431 9.92167 11.1622L9.99967 11.1668H12.6663C12.8296 11.1668 12.9872 11.1069 13.1093 10.9984C13.2313 10.8898 13.3092 10.7403 13.3283 10.5782L13.333 10.5002V5.16683C13.333 5.00354 13.273 4.84594 13.1645 4.72391C13.056 4.60189 12.9065 4.52393 12.7443 4.50483L12.6663 4.50016H9.33301ZM7.33301 3.16683H2.66634V9.8335H7.99967V3.8335C7.99965 3.67021 7.9397 3.5126 7.8312 3.39058C7.72269 3.26856 7.57317 3.1906 7.41101 3.1715L7.33301 3.16683Z" fill="#0DB1AD"/>
</svg>
