<svg width="30" height="30" viewBox="0 0 30 30" fill="none" xmlns="http://www.w3.org/2000/svg">
<g clip-path="url(#clip0_115_1988)">
<path d="M29.1469 12.2962C29.3218 13.303 29.409 14.3231 29.4075 15.345C29.4075 19.9087 27.7763 23.7675 24.9375 26.3794H24.9412C22.4587 28.6725 19.0462 30 15 30C11.0218 30 7.20644 28.4196 4.3934 25.6066C1.58035 22.7936 0 18.9782 0 15C0 11.0218 1.58035 7.20644 4.3934 4.3934C7.20644 1.58035 11.0218 -2.03389e-06 15 -2.03389e-06C18.7236 -0.0436114 22.3197 1.35531 25.035 3.90375L20.7525 8.18625C19.2045 6.71058 17.1384 5.90248 15 5.93625C11.0869 5.93625 7.7625 8.57625 6.5775 12.1312C5.9492 13.9941 5.9492 16.0116 6.5775 17.8744H6.58312C7.77375 21.4237 11.0925 24.0637 15.0056 24.0637C17.0269 24.0637 18.7631 23.5462 20.1094 22.6312H20.1038C20.8855 22.1134 21.5541 21.4425 22.0694 20.6591C22.5847 19.8757 22.9359 18.996 23.1019 18.0731H15V12.2981L29.1469 12.2962Z" fill="#1B1561"/>
</g>
<defs>
<clipPath id="clip0_115_1988">
<rect width="30" height="30" fill="white"/>
</clipPath>
</defs>
</svg>
