<svg width="20" height="20" viewBox="0 0 20 20" fill="none" xmlns="http://www.w3.org/2000/svg">
<g opacity="0.5" clip-path="url(#clip0_34_648)">
<path d="M10.2053 6.20556C9.75572 6.20608 9.30982 6.28698 8.88867 6.44444L13.7776 11.3333C13.9371 10.907 14.018 10.4552 14.0164 10C14.012 8.99212 13.6086 8.02703 12.8943 7.31591C12.1801 6.60478 11.2132 6.20555 10.2053 6.20556Z" fill="black"/>
<path d="M19.0501 9.73889C17.1779 6.27778 13.8945 4.18333 10.2612 4.18333C9.27196 4.18566 8.28935 4.34505 7.3501 4.65556L8.24454 5.55556C8.90335 5.38529 9.58076 5.29758 10.2612 5.29444C13.389 5.29444 16.2334 7.03889 17.9279 9.97778C17.3063 11.0681 16.4823 12.0298 15.5001 12.8111L16.289 13.6C17.4257 12.683 18.3697 11.5501 19.0668 10.2667L19.2112 10L19.0501 9.73889Z" fill="black"/>
<path d="M2.7056 3.21111L5.18338 5.68889C3.61722 6.69728 2.33721 8.09209 1.46671 9.73889L1.32227 10L1.46671 10.2667C3.33893 13.7278 6.62226 15.8222 10.2556 15.8222C11.6737 15.8219 13.0735 15.501 14.35 14.8833L17.1278 17.6611L18.1 16.8278L3.6556 2.38333L2.7056 3.21111ZM7.31671 7.82222C6.79695 8.55522 6.55334 9.4485 6.629 10.3439C6.70466 11.2393 7.09471 12.079 7.7301 12.7144C8.36549 13.3498 9.20522 13.7398 10.1006 13.8155C10.996 13.8912 11.8893 13.6475 12.6223 13.1278L13.5112 14.0167C12.4821 14.4565 11.3747 14.6833 10.2556 14.6833C7.12782 14.6833 4.28338 12.9389 2.58893 10C3.4021 8.56012 4.57322 7.35456 5.98893 6.5L7.31671 7.82222Z" fill="black"/>
</g>
<defs>
<clipPath id="clip0_34_648">
<rect width="20" height="20" fill="white"/>
</clipPath>
</defs>
</svg>
