<svg width="72" height="64" viewBox="0 0 72 64" fill="none" xmlns="http://www.w3.org/2000/svg">
<g clip-path="url(#clip0_331_786)">
<path d="M34 23V25.5V28.5V34.0769L41 41" stroke="#1B1561" stroke-width="4" stroke-linecap="round" stroke-linejoin="round"/>
<path d="M14.7831 18.3229L12.7062 18.3309C12.7083 18.858 12.9266 19.3631 13.3135 19.7361C13.7003 20.1092 14.2245 20.32 14.772 20.3228L14.7831 18.3229ZM21.8224 20.3548C22.0952 20.3561 22.3655 20.3055 22.618 20.2062C22.8704 20.1068 23.1001 19.9605 23.2939 19.7756C23.4876 19.5908 23.6417 19.371 23.7472 19.1288C23.8528 18.8867 23.9078 18.6268 23.909 18.3642C23.9103 18.1015 23.8578 17.8412 23.7546 17.5981C23.6514 17.355 23.4995 17.1338 23.3076 16.9473C23.1156 16.7607 22.8874 16.6123 22.6359 16.5107C22.3844 16.409 22.1146 16.3561 21.8418 16.3549L21.8224 20.3548ZM16.824 11.5229C16.8225 11.2603 16.7674 11.0005 16.6617 10.7584C16.5559 10.5163 16.4017 10.2966 16.2078 10.1119C16.014 9.92715 15.7842 9.78101 15.5316 9.6818C15.2791 9.58258 15.0087 9.53224 14.736 9.53364C14.4633 9.53504 14.1935 9.58816 13.942 9.68996C13.6906 9.79176 13.4625 9.94026 13.2706 10.127C13.0788 10.3137 12.9271 10.5349 12.824 10.7781C12.721 11.0213 12.6687 11.2816 12.6702 11.5443L16.824 11.5229ZM13.368 28.76C13.4078 28.4987 13.3934 28.2323 13.3257 27.9763C13.258 27.7203 13.1383 27.4797 12.9735 27.2685C12.8087 27.0573 12.602 26.8796 12.3655 26.7458C12.129 26.6119 11.8673 26.5245 11.5955 26.4885C11.3237 26.4526 11.0472 26.4689 10.782 26.5364C10.5168 26.604 10.2681 26.7215 10.0503 26.8821C9.83249 27.0427 9.64988 27.2433 9.51302 27.4723C9.37617 27.7012 9.28778 27.954 9.25295 28.2161L13.368 28.76ZM55.0032 13.7016C44.4248 3.51506 27.3304 3.40839 16.8212 13.5309L19.7566 16.3575C28.6181 7.827 43.0817 7.87766 52.0678 16.5282L55.0032 13.7016ZM16.9984 50.2984C27.5769 60.4849 44.6712 60.5916 55.1804 50.4691L52.245 47.6424C43.3835 56.173 28.9199 56.1223 19.9338 47.4718L16.9984 50.2984ZM55.1804 50.4691C65.6896 40.3492 65.5816 23.8881 55.0032 13.7016L52.0678 16.5282C61.0511 25.1814 61.1038 39.1092 52.245 47.6424L55.1804 50.4691ZM16.8212 13.5309L13.3126 16.9069L16.2508 19.7335L19.7566 16.3575L16.8212 13.5309ZM14.772 20.3228L21.8224 20.3548L21.8418 16.3549L14.7942 16.3229L14.772 20.3228ZM16.86 18.3122L16.824 11.5229L12.6702 11.5443L12.7062 18.3309L16.86 18.3122ZM9.25018 28.2134C8.68157 32.2204 9.08531 36.2998 10.4297 40.1313C11.7741 43.9628 14.0225 47.4447 16.9984 50.2984L19.9338 47.4718C17.4117 45.0539 15.5061 42.1031 14.3669 38.8564C13.2276 35.6097 12.8857 32.1555 13.368 28.76L9.25018 28.2134Z" fill="#1B1561"/>
</g>
<defs>
<clipPath id="clip0_331_786">
<rect width="72" height="64" fill="white"/>
</clipPath>
</defs>
</svg>
