<svg width="71" height="71" viewBox="0 0 71 71" fill="none" xmlns="http://www.w3.org/2000/svg">
<g clip-path="url(#clip0_251_144)">
<path d="M61.9122 17.3952C59.9242 18.3892 59.1432 19.9512 59.3562 22.3297C59.9242 28.3292 68.5152 28.2582 69.1187 22.2587C69.5092 18.2827 65.4977 15.5847 61.9122 17.3952Z" fill="#1B1561"/>
<path d="M32.7669 17.8209C32.5539 18.0694 30.8854 20.6964 29.0039 23.6784C25.7734 28.7549 25.6314 29.0744 26.3769 29.3229C26.8029 29.4294 27.6549 29.9264 28.2584 30.3524L29.3234 31.1689L32.7669 25.7019C34.6484 22.7199 36.2104 19.9509 36.2104 19.5959C36.2104 19.2054 35.6424 18.6374 34.8259 18.1759C33.2284 17.2529 33.1929 17.2529 32.7669 17.8209Z" fill="#1B1561"/>
<path d="M6.177 18.7439C5.396 19.2764 3.5855 22.0809 3.763 22.5424C3.8695 22.7909 4.828 23.5719 5.8575 24.2819C6.9225 24.9919 7.739 25.7374 7.6325 25.9859C7.4905 26.4829 3.195 49.4159 3.195 49.8064C3.195 49.9484 2.6625 50.0549 2.0235 50.0549C0.426 50.0549 0 50.5874 0 52.6109V54.3149H31.595H63.2255L63.119 52.2559L63.0125 50.2324L61.1665 50.0549L59.285 49.8774L65.1425 40.7539C68.373 35.7129 71 31.4529 71 31.2754C71 30.8494 68.515 29.1099 67.947 29.1099C67.6985 29.1099 64.681 33.5474 61.202 38.9434C57.7585 44.3749 54.883 48.8479 54.8475 48.9189C54.7765 48.9899 53.25 48.0669 51.4395 46.9309C48.28 44.9074 48.0315 44.8009 46.3275 44.9784C44.8365 45.1204 44.446 45.0494 43.878 44.4104C43.523 44.0199 43.2035 43.2389 43.239 42.6709C43.239 41.7834 42.813 41.4284 39.2275 39.1209C36.991 37.7364 34.3285 36.0324 33.299 35.3579L31.4175 34.1864V36.5294C31.4175 37.8074 31.3465 39.1919 31.24 39.5824C31.098 40.1504 32.305 41.0734 38.5885 45.0849L46.15 49.8774L26.7315 49.9839C16.0815 50.0194 7.242 49.9839 7.171 49.8774C6.9935 49.6999 10.934 28.0449 11.147 27.7964C11.1825 27.7254 12.638 28.5774 14.342 29.6779L17.466 31.6659L18.4245 30.7429C19.454 29.7489 20.803 29.1809 22.8265 28.8259C24.1045 28.5774 24.353 28.3289 26.483 24.8144C28.826 21.0159 29.039 20.1284 27.6545 19.7734C26.7315 19.5249 26.412 19.9154 23.9625 23.9269C22.8265 25.8084 21.7615 27.4414 21.584 27.5479C21.442 27.6544 18.318 25.8439 14.626 23.5009C6.745 18.4954 6.6385 18.4244 6.177 18.7439Z" fill="#1B1561"/>
<path d="M36.672 22.72C35.11 23.359 34.542 26.341 35.7845 27.4415C36.1395 27.761 38.4115 28.8615 40.8255 29.8555C43.275 30.885 45.4405 31.8435 45.6535 32.021C45.8665 32.163 46.1505 33.867 46.2925 35.7485C46.4345 37.63 46.612 39.263 46.7185 39.3695C46.825 39.476 47.6415 39.1565 48.5645 38.695C51.0495 37.3815 54.3865 34.08 55.5225 31.7725C57.0845 28.755 58.3625 28.116 60.1375 29.5005C61.309 30.4235 61.309 31.5595 60.2085 33.9025C58.54 37.488 55.061 40.9315 50.801 43.239L48.9905 44.2685L49.878 44.659C51.4755 45.4045 53.357 45.1915 54.8835 44.091C58.753 41.251 62.8355 34.932 62.8355 31.7015C62.8355 29.891 62.161 28.4 60.8475 27.3705C58.682 25.6665 56.5165 26.8025 54.1025 30.8495C52.221 33.9735 51.937 33.938 51.866 30.814C51.8305 28.968 51.1915 27.7965 49.9135 27.193C47.1445 25.8795 38.3405 22.365 37.9145 22.4005C37.666 22.4005 37.098 22.5425 36.672 22.72Z" fill="#1B1561"/>
<path d="M56.8711 30.5654C54.2441 35.4289 51.7946 37.7719 47.1441 39.9019C44.0556 41.3574 43.4876 41.8899 43.8071 43.1324C44.2331 44.7654 45.4756 44.9784 48.1026 43.8424C53.0371 41.7834 57.0131 38.4109 59.1786 34.5414C60.9536 31.4174 60.6696 29.4649 58.5041 29.4649C57.7231 29.4649 57.3326 29.7489 56.8711 30.5654Z" fill="#1B1561"/>
<path d="M20.9809 30.2103C16.1529 32.1273 14.9459 38.5528 18.7799 41.9963C21.9749 44.9073 26.6609 44.4813 29.2169 41.1088C31.844 37.7008 30.6369 32.3758 26.9094 30.5653C25.2409 29.7843 22.5074 29.6068 20.9809 30.2103ZM25.0279 34.2928C25.6669 34.5413 26.6254 36.2453 26.6254 37.0973C26.6254 38.0203 24.6729 39.7598 23.6079 39.7598C23.0399 39.7598 22.2589 39.3338 21.5844 38.6948C20.6969 37.7718 20.5549 37.4168 20.7324 36.4583C21.0874 34.5413 23.0754 33.5473 25.0279 34.2928Z" fill="#1B1561"/>
<path d="M22.4006 35.4644C21.4776 36.3874 21.4421 37.3459 22.2941 38.0914C23.1461 38.8724 24.2466 38.8369 24.9566 38.0559C25.6666 37.2749 25.7021 36.5649 25.1341 35.7839C24.3531 34.7899 23.1816 34.6834 22.4006 35.4644Z" fill="#1B1561"/>
</g>
<defs>
<clipPath id="clip0_251_144">
<rect width="71" height="71" fill="white"/>
</clipPath>
</defs>
</svg>
