<svg width="56" height="41" viewBox="0 0 56 41" fill="none" xmlns="http://www.w3.org/2000/svg">
<path d="M0.175 5.31292C0.527864 3.80358 1.39529 2.45594 2.63523 1.49072C3.87516 0.525496 5.4141 -0.000104189 7 1.54916e-08H49C50.5859 -0.000104189 52.1248 0.525496 53.3648 1.49072C54.6047 2.45594 55.4721 3.80358 55.825 5.31292L28 21.9145L0.175 5.31292ZM0 9.21475V33.4867L20.3105 21.3302L0 9.21475ZM23.6635 23.3358L0.6685 37.0947C1.23664 38.2642 2.13334 39.2521 3.25424 39.9435C4.37513 40.6349 5.67411 41.0012 7 41H49C50.3257 41.0003 51.6242 40.6331 52.7444 39.9411C53.8647 39.2492 54.7606 38.2609 55.328 37.0913L32.333 23.3324L28 25.9188L23.6635 23.3358ZM35.6895 21.3337L56 33.4867V9.21475L35.6895 21.3302V21.3337Z" fill="white"/>
</svg>
