<svg width="60" height="53" viewBox="0 0 60 53" fill="none" xmlns="http://www.w3.org/2000/svg">
<path d="M30 0C33.7 0 36.6667 2.94812 36.6667 6.625C36.6667 10.3019 33.7 13.25 30 13.25C26.3 13.25 23.3333 10.3019 23.3333 6.625C23.3333 2.94812 26.3333 0 30 0ZM60 39.75V33.125C52.5333 33.125 46.1333 29.945 41.3333 24.2475L36.8667 18.9475C36.2465 18.2004 35.4675 17.5991 34.5858 17.1868C33.704 16.7744 32.7412 16.5612 31.7667 16.5625H28.3333C26.3 16.5625 24.4333 17.4237 23.1667 18.9475L18.7 24.2475C13.8667 29.945 7.46667 33.125 0 33.125V39.75C9.23333 39.75 17.3 35.8744 23.3333 28.9844V36.4375L10.4 41.5719C8.16667 42.4662 6.66667 44.7187 6.66667 47.0706C6.66667 50.35 9.33333 53 12.6333 53H20V51.3438C20 49.1474 20.878 47.0411 22.4408 45.488C24.0036 43.935 26.1232 43.0625 28.3333 43.0625H38.3333C39.2667 43.0625 40 43.7912 40 44.7188C40 45.6463 39.2667 46.375 38.3333 46.375H28.3333C25.5667 46.375 23.3333 48.5944 23.3333 51.3438V53H47.3667C50.6667 53 53.3333 50.35 53.3333 47.0706C53.3333 44.7187 51.8333 42.4662 49.6 41.5719L36.6667 36.4375V28.9844C42.7 35.8744 50.7667 39.75 60 39.75Z" fill="#1B1561"/>
</svg>
