<svg width="55" height="55" viewBox="0 0 55 55" fill="none" xmlns="http://www.w3.org/2000/svg">
<path d="M13.3402 11.2516C22.2731 4.91516 35.04 5.43308 43.2992 12.48C51.7027 19.646 52.8508 31.3587 45.9392 39.7439C39.4262 47.6433 27.686 50.2466 17.9098 46.172L17.3781 45.9406L7.35207 48.0741L7.1802 48.1039L6.92812 48.1245L6.66916 48.1154L6.56832 48.1039L6.31624 48.0581L6.07562 47.9802L5.84645 47.8793L5.67228 47.7831L5.42478 47.6066L5.23916 47.437L5.07187 47.2468L4.95041 47.075L4.80145 46.8114L4.7052 46.5685L4.63416 46.3095L4.60437 46.1377L4.58374 45.8856L4.59291 45.6266L4.60437 45.5258L4.6502 45.2737L4.70062 45.1087L7.33603 37.2002L7.28562 37.1177C2.22103 28.5308 4.51499 17.886 12.8108 11.6389L13.3379 11.2539L13.3402 11.2516Z" fill="white"/>
</svg>
