<svg width="162" height="21" viewBox="0 0 162 21" fill="none" xmlns="http://www.w3.org/2000/svg">
<path d="M9.01758 10.1709C9.05664 10.2002 9.16895 10.2148 9.35449 10.2148C9.54004 10.2148 9.68164 10.1416 9.7793 9.99512C9.87695 9.84863 9.92578 9.60938 9.92578 9.27734V8.16406C9.92578 7.8125 9.88184 7.56348 9.79395 7.41699C9.71582 7.26074 9.5791 7.18262 9.38379 7.18262C9.19824 7.18262 9.07129 7.20215 9.00293 7.24121C9.0127 7.29004 9.01758 7.37305 9.01758 7.49023V10.1709ZM9.38379 16.792V19.0332C8.9541 19.3945 8.34863 19.6924 7.56738 19.9268C6.78613 20.1514 5.9707 20.2637 5.12109 20.2637C3.91016 20.2637 2.91895 20.0293 2.14746 19.5605C1.26855 19.0234 0.829102 18.2471 0.829102 17.2314V3.31543C0.829102 3.00293 1.03906 2.69043 1.45898 2.37793C1.88867 2.06543 2.47949 1.78223 3.23145 1.52832C4.84277 0.981445 6.68359 0.708008 8.75391 0.708008C11.6152 0.708008 13.8955 1.4209 15.5947 2.84668C17.2939 4.27246 18.1436 6.19141 18.1436 8.60352C18.1436 11.0059 17.377 12.876 15.8438 14.2139C14.3691 15.4834 12.3232 16.1182 9.70605 16.1182C9.11035 16.1182 8.4707 16.0498 7.78711 15.9131C7.11328 15.7666 6.65918 15.6396 6.4248 15.5322C6.34668 15.6104 6.30762 15.7178 6.30762 15.8545C6.30762 16.3525 7.33301 16.665 9.38379 16.792ZM26.9766 9.58496C27.0156 9.61426 27.1279 9.62891 27.3135 9.62891C27.499 9.62891 27.6406 9.55566 27.7383 9.40918C27.8359 9.2627 27.8848 9.02344 27.8848 8.69141V8.16406C27.8848 7.8125 27.8408 7.56348 27.7529 7.41699C27.6748 7.26074 27.5381 7.18262 27.3428 7.18262C27.1572 7.18262 27.0303 7.20215 26.9619 7.24121C26.9717 7.29004 26.9766 7.37305 26.9766 7.49023V9.58496ZM34.5352 12.9248L37.0693 15.5176C36.8936 17.041 36.4102 18.2129 35.6191 19.0332C34.8379 19.8535 33.7539 20.2637 32.3672 20.2637C31.3223 20.2637 30.4141 20.0146 29.6426 19.5166C28.6562 18.8916 27.9189 17.8955 27.4307 16.5283L26.9033 15.0928C26.4932 15.083 25.9756 15.0293 25.3506 14.9316C25.2725 15.0098 25.2334 15.1172 25.2334 15.2539C25.2334 15.5176 25.6289 15.6738 26.4199 15.7227L27.2549 17.832V19.0771C26.1318 19.8682 24.6914 20.2637 22.9336 20.2637C21.6738 20.2637 20.668 20.0049 19.916 19.4873C19.1641 18.9697 18.7881 18.2178 18.7881 17.2314V3.31543C18.7881 2.88574 19.1836 2.4707 19.9746 2.07031C20.7656 1.66016 21.8008 1.33301 23.0801 1.08887C24.3594 0.834961 25.6387 0.708008 26.918 0.708008C29.8477 0.708008 32.1377 1.30859 33.7881 2.50977C35.5264 3.76953 36.3955 5.54199 36.3955 7.82715C36.3955 9.13574 36.0244 10.2588 35.2822 11.1963C34.5498 12.124 33.6221 12.7686 32.499 13.1299C32.499 13.4424 32.6846 13.5986 33.0557 13.5986C33.4365 13.5986 33.9297 13.374 34.5352 12.9248ZM44.2178 1.10352H52.6699C52.9531 1.57227 53.1631 2.08496 53.2998 2.6416C53.4365 3.18848 53.5049 3.68164 53.5049 4.12109C53.5049 5.10742 53.3096 5.84961 52.9189 6.34766C52.5381 6.8457 52.001 7.09473 51.3076 7.09473H45.4043C45.043 7.09473 44.8623 7.23633 44.8623 7.51953V7.63672C44.8623 7.69531 44.8721 7.73438 44.8916 7.75391H51.8936C52.0693 8.05664 52.2207 8.4375 52.3477 8.89648C52.4648 9.39453 52.5234 9.83887 52.5234 10.2295C52.5234 11.3916 52.3086 12.2998 51.8789 12.9541H48.7002C47.2158 12.9541 46.21 13.0127 45.6826 13.1299C45.1553 13.2373 44.8281 13.3301 44.7012 13.4082C44.5742 13.4961 44.5107 13.6084 44.5107 13.7451C44.5107 13.8818 44.5791 13.9893 44.7158 14.0674C45.2236 13.9014 45.7559 13.7842 46.3125 13.7158C47.0449 13.6475 47.8408 13.6133 48.7002 13.6133H52.8164C53.4121 14.4531 53.71 15.4639 53.71 16.6455C53.71 17.3096 53.627 17.9443 53.4609 18.5498C53.2949 19.1553 53.0459 19.6436 52.7139 20.0146H41.7422C40.5312 20.0146 39.5596 19.7217 38.8271 19.1357C38.0264 18.5107 37.626 17.5928 37.626 16.3818V2.45117C37.626 1.98242 38.1631 1.64063 39.2373 1.42578C40.3115 1.21094 41.9717 1.10352 44.2178 1.10352ZM62.9824 15.1807V18.8867C62.5332 19.2773 61.9326 19.6045 61.1807 19.8682C60.4385 20.1318 59.5303 20.2637 58.4561 20.2637C57.3916 20.2637 56.4736 20.0244 55.7021 19.5459C54.8525 19.0283 54.4277 18.291 54.4277 17.334V2.45117C54.4277 1.55273 56.6299 1.10352 61.0342 1.10352H69.6328C69.916 1.62109 70.126 2.20215 70.2627 2.84668C70.3994 3.48145 70.4678 4.05273 70.4678 4.56055C70.4678 6.79688 69.4863 7.91504 67.5234 7.91504H62.4551C62.084 7.91504 61.8984 8.07129 61.8984 8.38379V8.48633C61.8984 8.54492 61.9082 8.58398 61.9277 8.60352H68.4023C68.9004 9.45312 69.1494 10.4102 69.1494 11.4746C69.1494 12.8027 68.8516 13.8379 68.2559 14.5801H61.0781C61 14.6582 60.9609 14.7461 60.9609 14.8438C60.9609 15 61.0781 15.0928 61.3125 15.1221C61.5566 15.1514 61.8301 15.166 62.1328 15.166C62.4355 15.166 62.7188 15.1709 62.9824 15.1807ZM80.5312 9.89258C80.5312 8.91602 80.4873 8.24707 80.3994 7.88574C80.3115 7.51465 80.1504 7.3291 79.916 7.3291C79.7695 7.3291 79.6377 7.37793 79.5205 7.47559C79.54 7.65137 79.5693 7.88574 79.6084 8.17871C79.6475 8.47168 79.667 9.09668 79.667 10.0537V11.0059C79.667 11.6699 79.6523 12.1533 79.623 12.4561C79.5938 12.7588 79.5693 13.0176 79.5498 13.2324C79.54 13.3496 79.5303 13.4668 79.5205 13.584C79.6377 13.6816 79.7695 13.7305 79.916 13.7305C80.1504 13.7305 80.3115 13.5498 80.3994 13.1885C80.4873 12.8174 80.5312 12.1436 80.5312 11.167V9.89258ZM79.9453 20.4688C78.207 20.4688 76.6104 20.1123 75.1553 19.3994C73.71 18.6768 72.543 17.5781 71.6543 16.1035C70.7656 14.6191 70.3213 12.7686 70.3213 10.5518C70.3213 7.33887 71.2881 4.8291 73.2217 3.02246C74.9404 1.43066 77.1523 0.634766 79.8574 0.634766C82.7969 0.634766 85.1211 1.54785 86.8301 3.37402C88.5488 5.19043 89.4082 7.58301 89.4082 10.5518C89.4082 13.8525 88.4902 16.3721 86.6543 18.1104C84.9844 19.6826 82.748 20.4688 79.9453 20.4688ZM98.4023 9.58496C98.4414 9.61426 98.5537 9.62891 98.7393 9.62891C98.9248 9.62891 99.0664 9.55566 99.1641 9.40918C99.2617 9.2627 99.3105 9.02344 99.3105 8.69141V8.16406C99.3105 7.8125 99.2666 7.56348 99.1787 7.41699C99.1006 7.26074 98.9639 7.18262 98.7686 7.18262C98.583 7.18262 98.4561 7.20215 98.3877 7.24121C98.3975 7.29004 98.4023 7.37305 98.4023 7.49023V9.58496ZM105.961 12.9248L108.495 15.5176C108.319 17.041 107.836 18.2129 107.045 19.0332C106.264 19.8535 105.18 20.2637 103.793 20.2637C102.748 20.2637 101.84 20.0146 101.068 19.5166C100.082 18.8916 99.3447 17.8955 98.8564 16.5283L98.3291 15.0928C97.9189 15.083 97.4014 15.0293 96.7764 14.9316C96.6982 15.0098 96.6592 15.1172 96.6592 15.2539C96.6592 15.5176 97.0547 15.6738 97.8457 15.7227L98.6807 17.832V19.0771C97.5576 19.8682 96.1172 20.2637 94.3594 20.2637C93.0996 20.2637 92.0938 20.0049 91.3418 19.4873C90.5898 18.9697 90.2139 18.2178 90.2139 17.2314V3.31543C90.2139 2.88574 90.6094 2.4707 91.4004 2.07031C92.1914 1.66016 93.2266 1.33301 94.5059 1.08887C95.7852 0.834961 97.0645 0.708008 98.3438 0.708008C101.273 0.708008 103.563 1.30859 105.214 2.50977C106.952 3.76953 107.821 5.54199 107.821 7.82715C107.821 9.13574 107.45 10.2588 106.708 11.1963C105.976 12.124 105.048 12.7686 103.925 13.1299C103.925 13.4424 104.11 13.5986 104.481 13.5986C104.862 13.5986 105.355 13.374 105.961 12.9248ZM125.312 20.2637C123.974 20.2637 122.924 20.0439 122.162 19.6045C121.342 19.1455 120.897 18.4961 120.829 17.6562L120.697 16.2793C121.596 16.0645 122.353 15.5078 122.968 14.6094C123.134 14.3555 123.217 14.1357 123.217 13.9502C123.217 13.6963 123.09 13.5693 122.836 13.5693H122.792C122.782 13.5791 122.763 13.584 122.733 13.584C122.05 15.0195 120.941 15.7373 119.408 15.7373C118.627 15.7373 117.958 15.5664 117.401 15.2246C116.854 14.8828 116.352 14.292 115.893 13.4521H115.805C115.541 13.4521 115.409 13.5645 115.409 13.7891C115.409 13.9453 115.468 14.1211 115.585 14.3164C115.976 14.9707 116.464 15.4834 117.05 15.8545C117.509 16.167 117.992 16.3525 118.5 16.4111L118.383 19.1797C117.797 19.5605 117.177 19.834 116.522 20C115.878 20.1758 114.955 20.2637 113.754 20.2637C112.562 20.2637 111.498 20.0293 110.561 19.5605C109.408 18.9844 108.832 18.1836 108.832 17.1582C108.832 15.8789 109.086 12.7197 109.594 7.68066C109.867 5.05371 110.087 3.21777 110.253 2.17285C111.259 1.27441 112.743 0.825195 114.706 0.825195C116.132 0.825195 117.313 1.08887 118.251 1.61621L119.057 4.31152L118.544 6.46484C118.505 6.61133 118.485 6.75293 118.485 6.88965C118.485 7.23145 118.681 7.40723 119.071 7.41699L120.463 1.63086C120.863 1.41602 121.386 1.23047 122.03 1.07422C122.675 0.908203 123.378 0.825195 124.14 0.825195C125.565 0.825195 126.62 1.06934 127.304 1.55762C127.997 2.03613 128.407 2.84668 128.534 3.98926C128.563 4.2041 128.607 4.56055 128.666 5.05859C129.555 12.6953 129.999 17.1924 129.999 18.5498C128.915 19.6924 127.353 20.2637 125.312 20.2637ZM134.13 20.0146C133.046 20.0146 132.206 19.7266 131.61 19.1504C131.024 18.5742 130.731 17.7051 130.731 16.543V2.2168C131.249 1.77734 131.879 1.44043 132.621 1.20605C133.373 0.961914 134.149 0.839844 134.95 0.839844C136.132 0.839844 137.133 1.13281 137.953 1.71875C138.842 2.38281 139.286 3.30078 139.286 4.47266V12.4854C138.739 12.5342 138.202 12.6904 137.675 12.9541C137.147 13.208 136.884 13.4717 136.884 13.7451C136.884 13.9111 136.977 14.0527 137.162 14.1699C138.129 13.3594 139.564 12.9541 141.469 12.9541H144.94C145.585 14.0869 145.907 15.2441 145.907 16.4258C145.907 17.0117 145.805 17.6611 145.6 18.374C145.395 19.0869 145.121 19.6338 144.779 20.0146H134.13ZM149.452 15.5469C149.726 15.5469 149.862 15.3955 149.862 15.0928C147.704 13.6572 146.054 11.8945 144.911 9.80469C143.778 7.71484 143.144 5.41016 143.007 2.89062C143.446 2.23633 144.101 1.7334 144.97 1.38184C145.849 1.03027 146.752 0.854492 147.68 0.854492C148.9 0.854492 149.95 1.09375 150.829 1.57227C151.376 3.04688 151.825 4.45313 152.177 5.79102C151.698 7.90039 151.459 8.95508 151.459 8.95508C151.42 9.10156 151.4 9.23828 151.4 9.36523C151.4 9.69727 151.576 9.86328 151.928 9.86328C152.045 9.49219 152.318 8.36914 152.748 6.49414C152.855 6.01562 152.997 5.35156 153.173 4.50195C153.358 3.64258 153.593 2.63184 153.876 1.46973C154.774 1.04004 155.8 0.825195 156.952 0.825195C158.349 0.825195 159.462 1.16699 160.292 1.85059C161.122 2.52441 161.537 3.50098 161.537 4.78027C161.537 6.65527 161.01 8.48145 159.955 10.2588C159.125 11.665 158.026 12.9785 156.659 14.1992V19.0332C155.849 19.5312 155.121 19.8584 154.477 20.0146C153.832 20.1807 153.153 20.2637 152.44 20.2637C151.093 20.2637 150.033 20.0098 149.262 19.502C148.49 18.9941 148.104 18.2373 148.104 17.2314V14.6533C148.28 14.8291 148.505 15.0244 148.778 15.2393C149.052 15.4443 149.276 15.5469 149.452 15.5469Z" fill="#1B1561"/>
</svg>
