<svg width="52" height="56" viewBox="0 0 52 56" fill="none" xmlns="http://www.w3.org/2000/svg">
<path d="M3.39316 0.000100241C2.9193 0.00416709 2.47233 0.130239 2.06713 0.373437C-0.166799 1.71452 -0.668328 6.25476 0.94706 10.5145C1.72489 12.5626 2.89809 14.2691 4.20757 15.2578C2.87521 28.8806 7.99418 37.6717 16.0206 41.8607C15.1263 47.5595 11.7182 51.7166 8.02314 55.5291L20.175 56L18.8954 54.5091L13.3496 53.2272C17.6667 49.5973 19.293 47.0183 20.7005 41.6128C20.0191 39.9285 18.2598 37.5544 17.4123 35.7736C19.991 36.149 23.7713 36.7049 24.3611 37.4223C24.8499 39.023 27.1112 42.5937 27.9495 47.1554L28.7687 50.494L35.1306 42.9335L34.7875 41.2534L29.6713 45.5789C29.7836 40.991 28.187 34.9607 26.7247 32.9533C26.7247 32.9533 22.9944 30.0811 16.6131 29.0171C13.5362 26.2907 11.9565 22.121 10.6824 19.1781L17.4012 19.7967L27.8537 18.2637C27.8537 18.2637 28.2183 18.6159 28.6886 19.0315C29.463 20.594 30.8413 21.6421 32.4016 21.6421C34.4245 21.6421 36.1423 19.882 36.6336 17.5209H52V14.5928H36.5956C36.0597 12.3163 34.3763 10.6382 32.4014 10.6382C31.0787 10.6382 29.887 11.3917 29.0828 12.573C28.8432 12.5454 28.6044 12.5171 28.3781 12.4746L27.2115 14.5936L17.5052 15.6477L9.2822 14.1837C10.295 12.0754 10.1986 8.72756 9.03706 5.65758C7.75447 2.27591 5.4665 -0.0174686 3.39316 0.000100241ZM32.4014 13.5661C33.5451 13.5661 34.4474 14.701 34.4474 16.14C34.4474 17.5788 33.545 18.7138 32.4015 18.7138C32.0684 18.7138 31.7568 18.6152 31.4809 18.4431C31.7584 16.7279 31.46 14.6365 31.3422 13.9322C31.6623 13.6914 32.0284 13.5649 32.4014 13.5661ZM38.8121 37.5298L34.6747 55.7493H51.2242V37.5298H38.8121Z" fill="#1B1561"/>
</svg>
