<svg width="15" height="17" viewBox="0 0 15 17" fill="none" xmlns="http://www.w3.org/2000/svg">
<path d="M0.978796 0.226591C0.842105 0.227764 0.713173 0.264116 0.596287 0.33424C-0.048115 0.720931 -0.192787 2.03007 0.27319 3.25834C0.497564 3.84889 0.835989 4.34093 1.21372 4.62602C0.829387 8.55404 2.30601 11.0889 4.62132 12.2967C4.36334 13.9399 3.38025 15.1386 2.31437 16.2379L5.81972 16.3737L5.4506 15.9438L3.85086 15.5742C5.09617 14.5275 5.56528 13.7839 5.97129 12.2253C5.77474 11.7396 5.26725 11.0551 5.02277 10.5416C5.76664 10.6498 6.85711 10.8101 7.02725 11.017C7.16823 11.4785 7.82054 12.5081 8.06237 13.8234L8.29868 14.7861L10.1338 12.6061L10.0348 12.1216L8.55904 13.3689C8.59141 12.046 8.13088 10.3072 7.70906 9.72838C7.70906 9.72838 6.63299 8.90021 4.79225 8.5934C3.90467 7.80726 3.44899 6.60497 3.08147 5.7564L5.01957 5.93478L8.03473 5.49274C8.03473 5.49274 8.13991 5.59429 8.27555 5.71414C8.49895 6.16467 8.89653 6.46688 9.34662 6.46688C9.93016 6.46688 10.4257 5.95936 10.5674 5.27857H15V4.43427H10.5564C10.4018 3.77787 9.91624 3.29399 9.34655 3.29399C8.96501 3.29399 8.62125 3.51126 8.38927 3.85189C8.32016 3.84391 8.25127 3.83575 8.186 3.82351L7.84948 4.4345L5.04959 4.73845L2.67756 4.3163C2.9697 3.7084 2.94191 2.74308 2.60684 1.85788C2.23687 0.882802 1.57688 0.221526 0.978796 0.226591ZM9.34655 4.13825C9.67647 4.13825 9.93676 4.46546 9.93676 4.88039C9.93676 5.29527 9.67643 5.62253 9.34658 5.62253C9.25051 5.62253 9.16063 5.59411 9.08104 5.54448C9.16107 5.04991 9.07499 4.44689 9.04102 4.24378C9.13337 4.17438 9.23896 4.13789 9.34655 4.13825ZM11.1958 11.048L10.0023 16.3014H14.7762V11.048H11.1958Z" fill="#1B1561"/>
</svg>
