<svg width="67" height="50" viewBox="0 0 67 50" fill="none" xmlns="http://www.w3.org/2000/svg">
<path d="M42.3368 0C48.8323 15.8979 46.4765 34.1136 42.3368 49.5481H67V0H42.3368ZM31.1961 1.62318C31.1157 1.62233 31.0345 1.62318 30.9526 1.62601C29.1784 1.68449 27.2007 2.58522 25.5816 4.07204C23.3457 6.12909 22.202 8.9219 22.723 11.053C16.3446 12.8018 11.8664 19.929 11.1512 25.5219C10.5887 30.7846 13.3229 34.2183 11.2303 37.6192L2.89977 43.1109L0 44.5265L4.96354 49.9999H7.18691L4.73902 45.4445L15.0729 39.9825C17.1562 38.7647 17.35 36.6209 17.8057 34.1638C20.0944 35.8455 22.565 37.4493 24.547 38.7631C23.6455 42.6833 19.0836 46.2473 16.2533 50H27.2847L26.873 49.2623C26.873 49.2623 21.3408 48.2975 20.6689 48.2005C20.6476 48.2019 20.6278 48.2012 20.6112 48.1977C20.5649 48.1869 20.5994 48.1906 20.6689 48.2005C21.8231 48.133 29.9002 40.8449 29.6739 39.0615C27.7607 35.7884 24.8504 32.7128 21.8818 29.6767C22.1433 26.0694 22.2078 22.2095 27.6578 18.9722L43.2557 18.3257C43.1225 15.1573 42.6136 9.85562 41.7887 8.97741C40.4135 10.0451 40.2477 13.3448 40.1405 15.8645L28.8772 15.5412C27.6802 15.452 26.7591 14.4302 25.8794 13.7256C27.8071 13.9459 30.1345 13.0303 32.0052 11.315C34.9354 8.62425 35.8728 4.82154 34.0987 2.82141C33.4191 2.05507 32.4021 1.63692 31.1961 1.62346V1.62318Z" fill="#1B1561"/>
</svg>
