<svg width="46" height="46" viewBox="0 0 46 46" fill="none" xmlns="http://www.w3.org/2000/svg">
<rect width="46" height="46" rx="8" fill="#1B1561" fill-opacity="0.1"/>
<ellipse cx="28.4962" cy="11.5593" rx="2.70718" ry="2.61499" fill="#1B1561"/>
<path d="M35.061 15.1547C34.3842 14.8278 33.5721 15.0567 33.2337 15.7104L32.0493 17.8678L26.838 14.6971C26.6349 14.5664 26.398 14.501 26.1273 14.501H20.3746C19.867 14.501 19.4271 14.7625 19.1902 15.1874L16.9906 19.1099C16.6184 19.731 16.8891 20.5481 17.532 20.875C17.7351 20.9731 17.972 21.0384 18.175 21.0384C18.6487 21.0384 19.1225 20.7769 19.3594 20.352L21.1867 17.116H23.1833L17.1936 27.9028H11.5762C10.8318 27.9028 10.2227 28.4912 10.2227 29.2103C10.2227 29.9294 10.8318 30.5178 11.5762 30.5178H18.0058C18.5134 30.5178 18.9533 30.2563 19.1902 29.8313L21.559 25.6147L25.4505 29.1122L25.146 35.6824C25.0783 36.4015 25.6536 37.0226 26.398 37.0552C26.4319 37.0552 26.4319 37.0552 26.4657 37.0552C27.1764 37.0552 27.7855 36.4996 27.8193 35.8131L28.1577 28.6219C28.1915 28.2297 28.0223 27.8701 27.7178 27.6086L24.4353 24.6667L27.887 18.4561L31.8124 20.8423C32.1169 21.0384 32.523 21.1038 32.8953 21.0058C33.2675 20.9077 33.5721 20.6789 33.7413 20.352L35.6024 16.9198C35.9747 16.2988 35.7378 15.5143 35.061 15.1547Z" fill="#1B1561"/>
</svg>
