<svg width="16" height="17" viewBox="0 0 16 17" fill="none" xmlns="http://www.w3.org/2000/svg">
<path d="M5.5459 3.55127C5.04255 3.81282 4.5824 4.15018 4.18157 4.55155C2.01912 6.71438 2.01875 10.221 4.18138 12.3838C6.34383 14.5463 9.85065 14.5459 12.0131 12.3831C12.4144 11.9823 12.7517 11.5223 13.0134 11.0191" stroke="#197BD2" stroke-linecap="round" stroke-linejoin="round"/>
<path d="M5.54602 3.55127C4.46179 5.63767 4.7944 8.26882 6.54537 10.02C8.29595 11.7707 10.9277 12.103 13.0137 11.0193" stroke="#197BD2" stroke-linecap="round" stroke-linejoin="round"/>
<path d="M7.88184 2.99414H10.3648L7.89332 5.95941H10.3528" stroke="#197BD2" stroke-miterlimit="10" stroke-linecap="round" stroke-linejoin="round"/>
<path d="M11.667 5.97266H13.4407L11.6753 8.09106H13.4323" stroke="#197BD2" stroke-miterlimit="10" stroke-linecap="round" stroke-linejoin="round"/>
<path d="M9.05176 7.66162H10.2979L9.0574 9.15018H10.292" stroke="#197BD2" stroke-miterlimit="10" stroke-linecap="round" stroke-linejoin="round"/>
</svg>
