<svg width="16" height="17" viewBox="0 0 16 17" fill="none" xmlns="http://www.w3.org/2000/svg">
<path fill-rule="evenodd" clip-rule="evenodd" d="M7.33288 11.1665H3.33288C3.21558 11.1665 3.10034 11.1356 2.99881 11.0769C2.89728 11.0181 2.81304 10.9336 2.75461 10.8319C2.69618 10.7302 2.66562 10.6149 2.66602 10.4976C2.66642 10.3803 2.69776 10.2652 2.75688 10.1638L7.42355 2.16384C7.76621 1.57584 8.66621 1.81984 8.66621 2.49984V5.83317H12.6662C12.7835 5.83314 12.8988 5.86406 13.0003 5.9228C13.1018 5.98155 13.186 6.06604 13.2445 6.16776C13.3029 6.26947 13.3335 6.3848 13.3331 6.5021C13.3327 6.61941 13.3013 6.73453 13.2422 6.83584L8.57555 14.8358C8.23288 15.4232 7.33288 15.1798 7.33288 14.4998V11.1665ZM7.33288 4.96584L4.49355 9.83317H7.99955C8.17636 9.83317 8.34593 9.90341 8.47095 10.0284C8.59598 10.1535 8.66621 10.323 8.66621 10.4998V12.0338L11.5055 7.16651H7.99955C7.82274 7.16651 7.65317 7.09627 7.52814 6.97124C7.40312 6.84622 7.33288 6.67665 7.33288 6.49984V4.96584Z" fill="#7042C9"/>
</svg>
