<svg width="147" height="125" viewBox="0 0 147 125" fill="none" xmlns="http://www.w3.org/2000/svg">
<path d="M70.0632 120.219C70.6171 122.007 70.1002 123.956 68.996 124.298C67.8918 124.64 66.8391 124.158 66.2852 122.371C65.7313 120.584 66.164 119.667 67.2682 119.325C68.3724 118.983 69.5093 118.432 70.0632 120.219Z" fill="#1B1561"/>
<path d="M125.127 107.709C122.576 110.022 118.923 110.675 117.494 109.099C116.064 107.523 116.05 105.392 118.601 103.079C121.151 100.766 123.018 100.775 124.447 102.351C125.876 103.927 127.678 105.396 125.127 107.709Z" fill="#1B1561" fill-opacity="0.19"/>
<path d="M31.3342 118.864C27.7974 122.071 21.6572 121.792 18.5158 118.328C15.3744 114.864 14.4888 110.955 18.0256 107.748C21.5624 104.541 24.837 105.31 27.9784 108.775C31.1198 112.239 34.8711 115.657 31.3342 118.864Z" fill="#1B1561" fill-opacity="0.19"/>
<path d="M31.6379 76.7312C32.1918 78.5183 31.6749 80.4676 30.5707 80.8098C29.4665 81.1521 28.4138 80.6702 27.8599 78.8831C27.306 77.0959 27.7387 76.1789 28.8429 75.8366C29.9471 75.4944 31.084 74.9441 31.6379 76.7312Z" fill="#1B1561"/>
<path d="M128.795 46.8531C128.409 41.9766 132.508 37.17 137.313 36.7896C142.119 36.4092 145.866 38.1372 146.252 43.0137C146.638 47.8903 143.945 50.0649 139.14 50.4453C134.334 50.8257 129.181 51.7296 128.795 46.8531Z" fill="#1B1561" fill-opacity="0.6"/>
<path d="M7.50925 37.3084C6.53582 38.3447 4.26259 37.0926 3.08422 35.9143C1.90584 34.7359 0.414696 32.4154 2.13182 30.6983C3.84895 28.9811 6.14741 31.3575 7.32578 32.5359C8.50415 33.7143 8.48268 36.2721 7.50925 37.3084Z" fill="#1B1561" fill-opacity="0.5"/>
<path d="M55.1369 16.7589C52.5861 19.0721 48.9324 19.7251 47.5031 18.149C46.0739 16.573 46.0594 14.4422 48.6102 12.129C51.1611 9.81578 53.0273 9.82472 54.4565 11.4008C55.8858 12.9769 57.6877 14.4457 55.1369 16.7589Z" fill="#1B1561" fill-opacity="0.19"/>
<path d="M100.331 1.54749C100.791 3.26351 99.6449 5.25062 97.9537 5.70377C96.2625 6.15691 94.8105 5.78718 94.3507 4.07117C93.8909 2.35515 94.7088 1.40079 96.4 0.947646C98.0912 0.494501 99.8717 -0.16852 100.331 1.54749Z" fill="#1B1561" fill-opacity="0.1"/>
<g clip-path="url(#clip0_34_758)">
<path fill-rule="evenodd" clip-rule="evenodd" d="M43.6203 69.8263C43.6203 69.8263 43.6203 69.8263 43.6203 69.8263C43.6203 62.358 46.5871 55.1956 51.868 49.9147C57.1489 44.6338 64.3114 41.667 71.7797 41.667C79.248 41.667 86.4104 44.6338 91.6913 49.9147C96.9722 55.1956 99.939 62.358 99.939 69.8263C99.939 77.2947 96.9722 84.4571 91.6913 89.738C86.4104 95.0189 79.248 97.9857 71.7797 97.9857C64.3114 97.9857 57.1489 95.0189 51.868 89.738C46.5871 84.4571 43.6203 77.2947 43.6203 69.8263C43.6203 69.8263 43.6203 69.8263 43.6203 69.8263ZM70.1727 81.8791C70.1727 81.8787 70.1728 81.8784 70.173 81.8781L85.2136 63.0757C85.8605 62.267 85.7294 61.0868 84.9206 60.4398C84.1119 59.7929 82.9319 59.9239 82.2848 60.7325L73.6534 71.5183C71.4454 74.2773 67.4024 74.6855 64.6875 72.4235L61.2819 69.5859C60.4856 68.9224 59.3022 69.0301 58.6387 69.8263C57.9751 70.6226 58.0826 71.806 58.8789 72.4697L70.1702 81.8802C70.1712 81.881 70.1727 81.8803 70.1727 81.8791Z" fill="#1B1561"/>
</g>
<defs>
<clipPath id="clip0_34_758">
<rect width="56.3187" height="56.3187" fill="white" transform="translate(43.6203 41.667)"/>
</clipPath>
</defs>
</svg>
