<svg width="60" height="60" viewBox="0 0 60 60" fill="none" xmlns="http://www.w3.org/2000/svg">
<path fill-rule="evenodd" clip-rule="evenodd" d="M6.80954 1.52572C6.7718 1.08556 6.56085 0.678391 6.22303 0.393702C5.88522 0.109014 5.44819 -0.0298969 5.008 0.00750131L1.68491 0.289148C1.46682 0.307625 1.2545 0.368881 1.06008 0.46942C0.865662 0.569959 0.692953 0.70781 0.551815 0.875102C0.410678 1.04239 0.303876 1.23585 0.23751 1.44442C0.171143 1.65299 0.146511 1.87259 0.165021 2.09068L0.713315 8.53855C0.473558 8.70573 0.281989 8.93303 0.15783 9.19764C0.0336699 9.46225 -0.0187128 9.75486 0.00593785 10.0461C0.0305885 10.3374 0.131405 10.617 0.298272 10.857C0.465138 11.097 0.692186 11.2888 0.95663 11.4133L1.53992 18.2828C1.5584 18.5009 1.61965 18.7132 1.72019 18.9077C1.82073 19.1021 1.95858 19.2748 2.12587 19.4159C2.29317 19.5571 2.48662 19.6639 2.69519 19.7302C2.90376 19.7966 3.12336 19.8212 3.34146 19.8027L6.66288 19.5194C7.10303 19.4821 7.51035 19.2715 7.79535 18.934C8.08034 18.5966 8.21969 18.1597 8.18277 17.7195L7.56615 10.4767C8.41609 10.3251 9.24936 10.1801 10.0726 10.0434C10.2476 12.7932 10.7559 17.4579 11.6925 21.8509C12.2925 24.6507 13.1124 27.5738 14.2523 29.8737C14.819 31.0202 15.5556 32.1935 16.5305 33.1201C17.3921 33.94 18.5587 34.665 19.9986 34.855V42.0744L19.4553 41.8794L19.0836 41.7461C17.4088 41.1462 15.7072 40.5362 14.4073 40.2079C13.7774 40.0479 12.8224 39.8396 11.8858 39.9229C11.0863 39.9842 10.3235 40.2837 9.69599 40.7829C9.26743 41.1325 8.92267 41.5737 8.68705 42.0741C8.45143 42.5744 8.33093 43.1213 8.33442 43.6743C8.33442 45.0459 8.80272 48.574 9.20103 51.3921C9.4466 53.1317 9.70214 54.87 9.96764 56.6067L10.021 56.955L10.036 57.0467L10.0393 57.07V57.0783L13.3341 56.5684L10.041 57.0783C10.1684 57.8858 10.5882 58.6183 11.2204 59.1365C11.8526 59.6547 12.6533 59.9225 13.47 59.889C14.2868 59.8554 15.0628 59.5229 15.6504 58.9546C16.238 58.3863 16.5963 57.6219 16.6572 56.8067L17.2738 48.179C19.1253 48.8423 21.2868 49.6072 23.4217 50.2072C25.5432 50.8038 27.8713 51.3071 29.9995 51.3071C32.1277 51.3071 34.4559 50.8038 36.5774 50.2072C38.6939 49.6122 40.8371 48.8539 42.6769 48.1957L43.3419 56.8234C43.4051 57.6379 43.7654 58.4009 44.3542 58.9673C44.943 59.5337 45.7193 59.8642 46.5358 59.8958C47.3522 59.9275 48.1518 59.6582 48.7827 59.1391C49.4136 58.62 49.8319 57.8872 49.9581 57.08L49.9597 57.07L49.9631 57.0467L49.9781 56.955L50.0314 56.605L50.2214 55.3501C50.378 54.3035 50.588 52.8836 50.798 51.3921C51.1963 48.574 51.6646 45.0459 51.6646 43.676C51.6646 42.6927 51.2813 41.5795 50.3014 40.7829C49.6739 40.2836 48.9111 39.9841 48.1115 39.9229C47.1749 39.8396 46.22 40.0479 45.5884 40.2062C44.2885 40.5362 42.5886 41.1462 40.9137 41.7461L40.5421 41.8794L39.9988 42.0744V34.8633C43.1486 34.5117 45.0567 31.9585 46.1083 29.927C47.3282 27.5738 48.1249 24.599 48.6648 21.7842C49.5114 17.3862 49.8447 12.7682 49.9531 10.0651C50.7663 10.1984 51.5913 10.3401 52.4295 10.4884L51.8129 17.7195C51.776 18.16 51.9156 18.5971 52.2009 18.9346C52.4863 19.2721 52.894 19.4825 53.3345 19.5194L56.6542 19.8027C56.8723 19.8212 57.0919 19.7966 57.3005 19.7302C57.5091 19.6639 57.7025 19.5571 57.8698 19.4159C58.0371 19.2748 58.1749 19.1021 58.2755 18.9077C58.376 18.7132 58.4373 18.5009 58.4558 18.2828L59.0391 11.4133C59.3044 11.2897 59.5324 11.0983 59.7001 10.8584C59.8678 10.6185 59.9691 10.3385 59.994 10.0469C60.0188 9.75523 59.9663 9.46218 59.8416 9.19734C59.717 8.9325 59.5246 8.70525 59.284 8.53855L59.8323 2.09068C59.8508 1.87259 59.8262 1.65299 59.7598 1.44442C59.6935 1.23585 59.5867 1.04239 59.4455 0.875102C59.3044 0.70781 59.1317 0.569959 58.9373 0.46942C58.7429 0.368881 58.5305 0.307625 58.3124 0.289148L54.991 0.00583488C54.5508 -0.0310832 54.114 0.108265 53.7765 0.393259C53.439 0.678253 53.2285 1.08558 53.1912 1.52572L52.7129 7.15365C51.6496 6.96699 50.608 6.79201 49.5847 6.62869C49.3356 6.17694 48.9851 5.78919 48.5606 5.49595C48.1362 5.20271 47.6495 5.012 47.1389 4.93881C46.6282 4.86563 46.1075 4.91198 45.6178 5.07422C45.1281 5.23645 44.6828 5.51014 44.3168 5.87374C34.1892 4.5955 25.6148 4.59717 15.6639 5.85707C15.2979 5.49905 14.8544 5.23013 14.3678 5.07119C13.8811 4.91224 13.3644 4.86754 12.8576 4.94056C12.3509 5.01357 11.8678 5.20233 11.4458 5.49219C11.0238 5.78206 10.6743 6.16524 10.4243 6.61202C9.39768 6.77534 8.35276 6.95199 7.28617 7.14198L6.80954 1.52572ZM18.2137 20.4577C17.4383 16.7076 16.9304 12.9072 16.6938 9.08517C25.9115 7.96359 33.9342 7.96359 43.3169 9.10684C43.2535 11.3267 42.9702 16.0963 42.1186 20.5243C41.6187 23.1258 40.9687 25.359 40.1904 26.8605C39.6605 27.8821 39.2972 28.1688 39.1772 28.2371H21.0718C20.8785 28.0355 20.5802 27.6271 20.2269 26.9139C19.4569 25.359 18.7737 23.0742 18.2137 20.4577ZM37.499 17.4046C37.499 19.3935 36.7088 21.3011 35.3024 22.7075C33.896 24.1139 31.9885 24.904 29.9995 24.904C28.0105 24.904 26.103 24.1139 24.6966 22.7075C23.2902 21.3011 22.5001 19.3935 22.5001 17.4046C22.5001 15.4156 23.2902 13.5081 24.6966 12.1017C26.103 10.6952 28.0105 9.90511 29.9995 9.90511C31.9885 9.90511 33.896 10.6952 35.3024 12.1017C36.7088 13.5081 37.499 15.4156 37.499 17.4046Z" fill="#1B1561"/>
</svg>
