<svg width="77" height="73" viewBox="0 0 77 73" fill="none" xmlns="http://www.w3.org/2000/svg">
<path d="M33.6877 14.2392C31.6485 14.8147 30.3398 16.6018 30.3398 18.7828C30.3398 23.7504 37.5529 25.0529 39.3181 20.4184C40.7181 16.7533 37.4616 13.1487 33.6877 14.2392Z" fill="#1B1561"/>
<path d="M23.6445 22.1751C23.6445 22.902 25.5315 25.3859 27.0837 26.7186C33.0489 31.7166 40.4141 32.9888 47.7793 30.2323C49.1793 29.7174 49.5141 29.4448 49.5141 28.8995C49.5141 28.0514 47.5358 24.9618 46.1054 23.629L45.0402 22.6294L43.6097 23.5684C39.6228 26.2643 33.8097 26.7186 28.9706 24.6892C28.1489 24.356 26.5967 23.5381 25.5619 22.9323C24.4054 22.2356 23.6445 21.9327 23.6445 22.1751Z" fill="#1B1561"/>
<path d="M18.5619 33.7159C16.5532 34.2611 13.9358 35.5636 13.7227 36.1391C13.4793 36.7449 15.5184 39.6831 17.1619 41.1371C17.9227 41.8035 18.6532 42.3487 18.7749 42.3487C18.8967 42.3487 19.9314 41.9246 21.088 41.3794C22.9445 40.5313 23.4923 40.4101 25.8358 40.3798C28.0271 40.3798 28.6053 40.4707 29.3358 41.0159C30.614 41.9549 31.8314 43.8632 31.9227 45.0445L32.014 46.1047L30.3401 45.9532C29.4271 45.8927 26.6271 45.8321 24.101 45.8321C19.5662 45.8321 17.2532 46.2259 17.2532 46.9831C17.2532 48.6491 20.9967 52.8292 22.214 52.5263C27.4488 51.2238 32.714 51.7387 35.0271 53.7985C35.8488 54.5254 36.7314 56.5549 36.7314 57.7968C36.7314 60.4018 33.9314 63.9155 31.0401 64.8848C29.2749 65.4906 24.9836 65.5209 22.8227 64.9454C18.7749 63.8549 15.6706 61.2499 13.3575 57.0093L12.0488 54.6163L12.1401 56.9184C12.2314 58.9176 12.414 59.5537 13.5706 61.8557C15.8227 66.4296 19.6271 69.8221 24.4967 71.6698C26.2619 72.3362 27.0227 72.4574 30.3401 72.4574C33.8401 72.4877 34.2662 72.4271 35.8488 71.7001C39.0445 70.1856 41.114 67.4292 42.088 63.34C42.6053 61.1591 42.514 57.7362 41.9053 56.1308C41.601 55.3736 41.6923 55.1615 42.6053 54.1923C44.0053 52.7383 44.2184 52.284 44.9488 48.9823C45.6793 45.6201 46.5619 44.1661 48.3575 43.2877C49.9706 42.5304 50.9749 42.5001 52.4967 43.1362C55.9358 44.5599 57.8836 48.8308 56.8184 52.6474C55.9358 55.7674 52.6793 58.6449 49.1793 59.3719C47.5662 59.7051 47.3836 59.796 47.3836 60.523C47.3836 62.7644 51.4619 66.884 53.6836 66.884C55.114 66.884 58.2488 65.1877 59.9836 63.4914C60.8358 62.613 61.9619 61.0682 62.4793 60.0686C63.3619 58.2815 63.3619 58.1906 63.3619 52.9201V47.5889L62.0532 44.9537C59.4053 39.6831 54.8401 36.3512 49.8488 36.0483C46.8358 35.8665 44.9184 36.6238 42.9706 38.7744C41.601 40.2889 41.1749 41.2279 40.0793 45.0142C39.501 47.0437 38.6488 48.4068 37.9793 48.4068C37.8575 48.4068 37.6445 47.5284 37.5227 46.4682C37.1575 42.9545 35.9097 40.0466 33.7793 37.7748C30.8575 34.6549 27.4488 33.2615 22.9749 33.2918C21.4227 33.2918 19.414 33.5039 18.5619 33.7159Z" fill="#1B1561"/>
</svg>
