<svg width="24" height="7" viewBox="0 0 24 7" fill="none" xmlns="http://www.w3.org/2000/svg">
<path d="M6.265 3.27803C6.24107 3.23585 6.20691 3.20036 6.16567 3.17485C6.12443 3.14933 6.07743 3.13461 6.029 3.13203H5.847C5.79892 3.13493 5.75233 3.14981 5.71146 3.17531C5.67059 3.20081 5.63675 3.23612 5.613 3.27803L4.164 6.30303C4.123 6.38203 4.168 6.44103 4.258 6.44103H4.593C4.725 6.44103 4.786 6.38003 4.821 6.30703C4.858 6.23403 4.937 6.07303 4.951 6.04103C4.971 5.99603 5.034 5.97003 5.126 5.97003H6.685C6.774 5.97003 6.833 5.98603 6.86 6.04103C6.878 6.07603 6.958 6.22003 6.996 6.29703C7.01588 6.34172 7.04895 6.37928 7.09077 6.40466C7.13259 6.43003 7.18117 6.44203 7.23 6.43903H7.716C7.805 6.43903 7.846 6.37003 7.814 6.30703C7.78 6.24603 6.265 3.27803 6.265 3.27803ZM5.351 5.50203C5.262 5.50203 5.219 5.43503 5.257 5.35403L5.828 4.13203C5.867 4.05103 5.928 4.05103 5.964 4.13203L6.519 5.35403C6.556 5.43503 6.513 5.50203 6.423 5.50203H5.351ZM17.456 3.30103V6.30203C17.456 6.38503 17.529 6.44003 17.619 6.44003H18.015C18.104 6.44003 18.178 6.38303 18.178 6.29403V3.29603C18.178 3.20703 18.119 3.13303 18.03 3.13303H17.619C17.529 3.13203 17.456 3.18703 17.456 3.30103ZM10.825 5.18103C10.774 5.10803 10.803 5.02703 10.888 5.00003C10.888 5.00003 11.23 4.89803 11.394 4.75003C11.559 4.60403 11.64 4.39003 11.64 4.11403C11.6445 3.95625 11.6116 3.79965 11.544 3.65703C11.482 3.53416 11.3889 3.42969 11.274 3.35403C11.1444 3.27208 11.0011 3.21415 10.851 3.18303C10.686 3.14803 10.465 3.13603 10.465 3.13603C10.3567 3.13136 10.2484 3.12869 10.14 3.12803H8.495C8.45185 3.12829 8.41054 3.14555 8.38003 3.17606C8.34952 3.20657 8.33226 3.24788 8.332 3.29103V6.28903C8.332 6.37803 8.405 6.43503 8.495 6.43503H8.883C8.972 6.43503 9.046 6.37803 9.046 6.28903V5.09603C9.046 5.09603 9.048 5.09603 9.048 5.09403L9.786 5.09203C9.875 5.09203 9.991 5.15303 10.044 5.22603L10.81 6.30303C10.881 6.39903 10.948 6.43503 11.038 6.43503H11.546C11.635 6.43503 11.65 6.35003 11.619 6.30703C11.587 6.26903 10.825 5.18103 10.825 5.18103ZM10.514 4.57103C10.4437 4.58521 10.3726 4.59457 10.301 4.59903C10.1927 4.60303 10.0844 4.60503 9.976 4.60503H9.213C9.16985 4.60476 9.12854 4.58751 9.09803 4.557C9.06752 4.52648 9.05026 4.48518 9.05 4.44203V3.83403C9.05 3.74503 9.123 3.67103 9.213 3.67103H9.975C10.064 3.67103 10.211 3.67503 10.3 3.67703C10.3 3.67703 10.414 3.68103 10.513 3.70503C10.5989 3.72068 10.6807 3.75405 10.753 3.80303C10.8078 3.8398 10.8515 3.89102 10.879 3.95103C10.9044 4.01009 10.9175 4.07372 10.9175 4.13803C10.9175 4.20233 10.9044 4.26596 10.879 4.32503C10.8517 4.38521 10.8081 4.4365 10.753 4.47303C10.6811 4.52219 10.5997 4.55559 10.514 4.57103ZM22.317 3.13203C22.228 3.13203 22.154 3.19103 22.154 3.27803V5.19703C22.154 5.28603 22.103 5.30703 22.04 5.24403L20.119 3.25203C20.0836 3.21446 20.0408 3.18459 19.9933 3.16429C19.9458 3.14399 19.8946 3.13369 19.843 3.13403H19.481C19.367 3.13403 19.318 3.19503 19.318 3.25603V6.32403C19.318 6.38503 19.377 6.44403 19.466 6.44403H19.828C19.917 6.44403 19.98 6.39503 19.98 6.31203L19.982 4.29103C19.982 4.20203 20.033 4.18103 20.096 4.24603L22.1 6.32803C22.1353 6.36643 22.1786 6.39669 22.2267 6.41671C22.2749 6.43674 22.3269 6.44606 22.379 6.44403H22.651C22.6941 6.44376 22.7355 6.42651 22.766 6.396C22.7965 6.36548 22.8137 6.32418 22.814 6.28103V3.29503C22.8137 3.25188 22.7965 3.21057 22.766 3.18006C22.7355 3.14955 22.6941 3.13229 22.651 3.13203H22.317ZM14.482 5.00203C14.439 5.08103 14.366 5.07903 14.323 5.00203L13.384 3.27803C13.3623 3.23404 13.3286 3.19703 13.2869 3.17122C13.2452 3.1454 13.1971 3.13183 13.148 3.13203H12.638C12.5949 3.13229 12.5535 3.14955 12.523 3.18006C12.4925 3.21057 12.4753 3.25188 12.475 3.29503V6.29103C12.475 6.38003 12.534 6.44103 12.638 6.44103H12.955C13.044 6.44103 13.109 6.38403 13.109 6.29903C13.109 6.25803 13.111 4.12003 13.113 4.12003C13.117 4.12003 14.286 6.29703 14.286 6.29703C14.2946 6.31478 14.308 6.32975 14.3247 6.34023C14.3414 6.3507 14.3608 6.35626 14.3805 6.35626C14.4002 6.35626 14.4196 6.3507 14.4363 6.34023C14.453 6.32975 14.4664 6.31478 14.475 6.29703C14.475 6.29703 15.654 4.12403 15.656 4.12403C15.66 4.12403 15.658 6.23403 15.658 6.29703C15.658 6.38403 15.727 6.43903 15.817 6.43903H16.181C16.27 6.43903 16.344 6.39403 16.344 6.27603V3.29403C16.3437 3.25088 16.3265 3.20957 16.296 3.17906C16.2655 3.14855 16.2241 3.13129 16.181 3.13103H15.693C15.6431 3.1293 15.5937 3.14171 15.5505 3.16683C15.5073 3.19195 15.4722 3.22877 15.449 3.27303L14.482 5.00203ZM0 4.78303C0 6.39903 1.653 6.48003 1.984 6.48003C3.082 6.48003 3.545 6.18303 3.564 6.17103C3.61133 6.14545 3.65061 6.10721 3.67746 6.06059C3.7043 6.01397 3.71764 5.9608 3.716 5.90703V4.79103C3.71613 4.76643 3.71139 4.74206 3.70204 4.71931C3.69268 4.69656 3.67892 4.67589 3.66152 4.6585C3.64413 4.64111 3.62347 4.62734 3.60072 4.61799C3.57797 4.60864 3.55359 4.6039 3.529 4.60403H2.151C2.047 4.60403 1.98 4.68703 1.98 4.79103V4.90703C1.98 5.01103 2.047 5.09403 2.151 5.09403H2.948C2.98513 5.09403 3.02074 5.10878 3.04699 5.13503C3.07325 5.16129 3.088 5.1969 3.088 5.23403V5.75403C2.931 5.81903 2.214 6.02803 1.637 5.89003C0.801 5.69103 0.736 5.00003 0.736 4.79403C0.736 4.62103 0.789 3.75103 1.815 3.66403C2.646 3.59303 3.193 3.92803 3.199 3.93203C3.297 3.98303 3.398 3.94603 3.453 3.84303L3.557 3.63403C3.6 3.54903 3.585 3.45903 3.48 3.38803C3.474 3.38403 2.89 3.06903 1.986 3.06903C0.0549999 3.06703 0 4.60803 0 4.78303ZM22.134 2.30503H19.969C19.89 2.30503 19.821 2.26603 19.782 2.19703C19.743 2.12803 19.743 2.05103 19.782 1.98203L20.866 0.108028C20.8845 0.0747793 20.9116 0.0471711 20.9446 0.0281498C20.9775 0.0091285 21.015 -0.000591512 21.053 2.78547e-05C21.091 -0.000591512 21.1285 0.0091285 21.1614 0.0281498C21.1944 0.0471711 21.2215 0.0747793 21.24 0.108028L22.324 1.98203C22.3441 2.01427 22.3548 2.05152 22.3548 2.08953C22.3548 2.12754 22.3441 2.16478 22.324 2.19703C22.3045 2.23002 22.2767 2.25735 22.2434 2.27629C22.21 2.29523 22.1723 2.30514 22.134 2.30503ZM23.622 5.75203C23.829 5.75203 24 5.92103 24 6.13003C23.9997 6.2302 23.9598 6.32619 23.889 6.39702C23.8182 6.46785 23.7222 6.50776 23.622 6.50803C23.5218 6.50776 23.4258 6.46785 23.355 6.39702C23.2842 6.32619 23.2443 6.2302 23.244 6.13003C23.2445 6.02994 23.2845 5.9341 23.3553 5.86332C23.4261 5.79255 23.5219 5.75255 23.622 5.75203ZM23.624 6.45203C23.797 6.45203 23.929 6.31203 23.929 6.13103C23.929 5.95003 23.799 5.81003 23.624 5.81003C23.449 5.81003 23.317 5.95003 23.317 6.13103C23.317 6.31103 23.447 6.45203 23.624 6.45203ZM23.478 5.90903H23.647C23.749 5.90903 23.799 5.95003 23.799 6.03303C23.799 6.10403 23.754 6.15503 23.685 6.15503L23.811 6.35003H23.734L23.61 6.15503H23.549V6.35003H23.476V5.90903H23.478ZM23.551 6.09803H23.636C23.691 6.09803 23.727 6.08603 23.727 6.02903C23.727 5.97803 23.682 5.96403 23.636 5.96403H23.551V6.09803Z" fill="black"/>
</svg>
